<svg version="1.1" id="Layer_1" xmlns="http://www.w3.org/2000/svg" xmlns:xlink="http://www.w3.org/1999/xlink" x="0px" y="0px"
	 width="100%" viewBox="0 0 512 512" enable-background="new 0 0 512 512" xml:space="preserve">
<path fill="#010101" opacity="1.000000" stroke="none" 
	d="
M513.000000,196.000000 
	C513.000000,300.641235 512.981995,404.782532 513.083740,508.923645 
	C513.086975,512.179932 512.658630,513.106140 509.078156,513.103638 
	C341.119232,512.984619 173.160217,512.983459 5.201323,513.106628 
	C1.464534,513.109375 0.911735,512.178833 0.913779,508.703247 
	C1.012443,340.910950 1.011063,173.118576 0.921380,5.326256 
	C0.919568,1.936941 1.350284,0.884058 5.171799,0.887035 
	C173.130692,1.017871 341.089722,1.014648 509.048645,0.899656 
	C512.568787,0.897246 513.095825,1.726812 513.089478,5.046912 
	C512.968384,68.531097 513.000000,132.015579 513.000000,196.000000 
z"/>
<path fill="#F2F4F6" opacity="1.000000" stroke="none" 
	d="
M266.572327,185.920502 
	C295.826843,180.997482 315.704041,164.979202 326.571655,137.903992 
	C327.517181,135.548279 328.678284,135.033707 330.943512,135.036926 
	C368.599854,135.090454 406.256531,135.125305 443.912476,134.990295 
	C447.348633,134.977982 447.608093,136.399857 447.587769,139.119705 
	C447.491791,151.948837 447.545074,164.779083 447.545074,177.608932 
	C447.545105,258.753571 447.497894,339.898315 447.663025,421.042633 
	C447.672852,425.882080 446.485840,427.030121 441.674866,427.000000 
	C405.686035,426.774780 369.694885,426.814117 333.705322,426.968872 
	C329.818359,426.985565 328.770508,426.043610 328.778290,422.084747 
	C328.909119,355.436401 328.872467,288.787781 328.871094,222.139191 
	C328.870880,212.805023 327.092834,211.003326 317.883514,211.002945 
	C277.061279,211.001266 236.239014,210.999420 195.416763,211.004578 
	C187.184052,211.005615 185.141327,213.056717 185.140717,221.342102 
	C185.135757,287.990692 185.091492,354.639343 185.241440,421.287598 
	C185.251556,425.778168 184.216736,427.020996 179.598099,426.994110 
	C143.442474,426.783478 107.284836,426.819550 71.128578,426.965393 
	C67.447342,426.980286 66.370789,426.158783 66.375290,422.339874 
	C66.486504,328.032257 66.481216,233.724457 66.387939,139.416809 
	C66.384506,135.939941 67.281456,134.981949 70.796051,134.994247 
	C107.952179,135.124390 145.108948,135.085617 182.265488,135.050034 
	C184.696701,135.047699 186.452240,135.081787 187.532684,138.075958 
	C198.196747,167.627975 228.895142,190.236038 266.572327,185.920502 
z"/>
<path fill="#D4A788" opacity="1.000000" stroke="none" 
	d="
M245.000000,225.001083 
	C267.161987,225.001129 288.824524,225.076111 310.485443,224.923965 
	C313.911072,224.899902 314.961548,225.713745 314.955353,229.289536 
	C314.843903,293.608795 314.841156,357.928375 314.959106,422.247620 
	C314.965973,425.987427 314.011566,426.977539 310.256287,426.961975 
	C274.764557,426.814606 239.271729,426.817017 203.779953,426.959198 
	C200.065323,426.974091 199.043015,426.049469 199.050156,422.268616 
	C199.171692,357.949371 199.167099,293.629791 199.057571,229.310532 
	C199.051529,225.761398 200.052597,224.871429 203.510193,224.920914 
	C217.171051,225.116409 230.836349,225.001129 245.000000,225.001083 
z"/>
<path fill="#F2F4F6" opacity="1.000000" stroke="none" 
	d="
M310.284058,60.724022 
	C270.219421,21.795311 208.501755,34.826813 187.610672,86.383102 
	C186.633148,88.795494 185.479553,89.622765 182.919968,89.617699 
	C145.439621,89.543449 107.958923,89.520538 70.478828,89.643120 
	C67.030174,89.654388 66.374702,88.475685 66.396713,85.330986 
	C66.528481,66.508369 66.566376,47.683300 66.375000,28.861708 
	C66.336288,25.054041 67.184669,23.883430 71.222183,23.896788 
	C118.696968,24.053873 166.172455,23.997652 213.647766,23.997652 
	C289.774841,23.997650 365.901978,24.044710 442.028717,23.882708 
	C446.679016,23.872812 447.714569,25.145470 447.652740,29.606165 
	C447.396606,48.092999 447.469421,66.586037 447.615143,85.075272 
	C447.641479,88.415276 446.947449,89.662598 443.281738,89.649307 
	C405.968292,89.513977 368.654083,89.529900 331.340485,89.639832 
	C328.496765,89.648201 327.221954,88.714737 326.313690,86.142830 
	C322.941620,76.594627 317.480621,68.309593 310.284058,60.724022 
z"/>
<path fill="#C5CBD2" opacity="1.000000" stroke="none" 
	d="
M315.000122,472.316528 
	C371.829834,472.316528 428.159698,472.381592 484.488770,472.197906 
	C489.199097,472.182556 490.647400,473.540802 490.042877,477.978241 
	C489.511902,481.875580 491.785461,487.111603 489.093781,489.382385 
	C486.827057,491.294586 481.791595,489.997223 477.981781,489.997559 
	C328.658142,490.009857 179.334488,489.978516 30.011032,490.135162 
	C24.970570,490.140472 23.679485,488.972198 23.858747,483.960632 
	C24.274881,472.326660 23.989794,472.316467 35.518173,472.316467 
	C128.512161,472.316467 221.506134,472.316498 315.000122,472.316528 
z"/>
<path fill="#E4E8EB" opacity="1.000000" stroke="none" 
	d="
M326.999756,458.327942 
	C234.202881,458.327942 141.905960,458.297302 49.609253,458.423157 
	C45.239456,458.429108 43.313713,457.602020 43.924622,452.859192 
	C44.408245,449.104492 42.738632,444.022522 44.656345,441.774902 
	C46.926327,439.114502 52.136856,440.924286 56.053524,440.922760 
	C192.166412,440.869598 328.279327,440.899109 464.392120,440.784637 
	C468.742859,440.780975 470.696655,441.573578 470.076477,446.328705 
	C469.586609,450.084442 471.242218,455.149261 469.324707,457.421997 
	C467.063110,460.102631 461.857727,458.273773 457.948395,458.280518 
	C414.465637,458.355774 370.982697,458.327911 326.999756,458.327942 
z"/>
<path fill="#F46A80" opacity="1.000000" stroke="none" 
	d="
M198.001648,100.197868 
	C204.646408,70.046837 231.070969,51.319668 258.907318,52.042801 
	C289.848450,52.846581 316.179291,78.765434 317.103638,109.493111 
	C318.089722,142.271271 294.312683,169.575272 262.500549,172.195755 
	C222.132507,175.521011 190.266800,140.191132 198.001648,100.197868 
z"/>
<path fill="#E4E8EB" opacity="1.000000" stroke="none" 
	d="
M444.000000,121.073540 
	C407.503540,121.073540 371.506927,121.026169 335.510864,121.148407 
	C331.996765,121.160332 330.154846,120.683311 330.995087,116.643639 
	C331.361633,114.881462 331.145294,112.989616 331.127136,111.157326 
	C331.051758,103.570236 331.042389,103.570274 338.899933,103.570274 
	C382.562317,103.570274 426.224884,103.628258 469.886719,103.473824 
	C473.915558,103.459564 475.681824,104.213318 475.048279,108.539032 
	C474.453949,112.597061 476.835938,118.072876 474.086212,120.437386 
	C471.760773,122.437050 466.474548,121.037201 462.498199,121.063278 
	C456.499023,121.102623 450.499420,121.073540 444.000000,121.073540 
z"/>
<path fill="#E4E8EB" opacity="1.000000" stroke="none" 
	d="
M182.984238,107.030083 
	C182.931229,109.361511 182.861511,111.194473 182.872696,113.026932 
	C182.921783,121.073570 182.930267,121.073524 174.620758,121.073524 
	C130.957565,121.073524 87.294250,121.032715 43.631371,121.150581 
	C40.117451,121.160065 38.394955,120.661293 38.938709,116.650627 
	C39.514320,112.405006 37.155003,106.676743 39.902008,104.210457 
	C42.238029,102.113159 47.831787,103.581558 51.984241,103.579994 
	C94.147552,103.564110 136.310883,103.555504 178.474106,103.618462 
	C180.382645,103.621307 183.685471,102.192139 182.984238,107.030083 
z"/>
<path fill="#040505" opacity="1.000000" stroke="none" 
	d="
M123.000000,210.994980 
	C135.493988,210.995041 147.488037,210.968964 159.481918,211.005692 
	C165.922653,211.025406 168.382721,213.289047 168.391174,219.601746 
	C168.442764,258.082367 168.440521,296.563110 168.388657,335.043732 
	C168.380493,341.095886 165.945770,343.611542 159.896423,343.636261 
	C137.241516,343.728851 114.585793,343.724030 91.930824,343.638031 
	C85.660126,343.614227 83.186180,341.012024 83.180099,334.708954 
	C83.143173,296.394897 83.140793,258.080750 83.181297,219.766678 
	C83.187943,213.477966 85.717316,211.038254 92.015419,211.008163 
	C102.176735,210.959625 112.338455,210.995026 123.000000,210.994980 
z"/>
<path fill="#040505" opacity="1.000000" stroke="none" 
	d="
M430.846375,323.988464 
	C430.846130,327.650818 430.864990,330.816010 430.841797,333.980896 
	C430.788635,341.241333 428.509125,343.636871 421.296326,343.656403 
	C402.139526,343.708282 382.982513,343.675049 363.825562,343.675598 
	C360.827087,343.675690 357.827759,343.721100 354.830322,343.665771 
	C347.853210,343.537018 345.616333,341.319489 345.610199,334.266785 
	C345.579773,299.284546 345.595245,264.302307 345.594543,229.320053 
	C345.594482,226.321579 345.566528,223.322784 345.600433,220.324692 
	C345.680237,213.265839 347.873291,211.010284 354.796234,211.003403 
	C376.951660,210.981369 399.107086,210.984497 421.262512,211.001282 
	C428.510010,211.006775 430.832458,213.298462 430.836914,220.543365 
	C430.857941,254.859299 430.846344,289.175232 430.846375,323.988464 
z"/>
<path fill="#080605" opacity="1.000000" stroke="none" 
	d="
M307.312012,320.812927 
	C309.803986,324.591827 309.805481,328.066437 307.078949,331.198853 
	C304.830780,333.781616 301.867462,334.700806 298.522705,333.496094 
	C295.251068,332.317749 293.335480,329.914764 293.074585,326.455750 
	C292.829651,323.207916 294.203552,320.573608 297.074554,319.000488 
	C300.708679,317.009186 304.093140,317.578674 307.312012,320.812927 
z"/>
<path fill="#040203" opacity="1.000000" stroke="none" 
	d="
M294.605957,134.121765 
	C289.219971,134.482941 282.822205,132.011307 279.750244,135.124130 
	C276.929138,137.982712 279.122070,144.317108 278.963837,149.117004 
	C278.764587,155.160751 276.409271,157.784027 270.534760,157.851654 
	C261.538086,157.955215 252.538574,157.950424 243.541748,157.853775 
	C237.624039,157.790222 235.302933,155.193130 235.020584,149.196884 
	C234.788940,144.277603 237.209885,137.708893 233.939056,134.918442 
	C231.105438,132.500992 224.735428,134.228027 219.928482,134.124512 
	C214.051285,133.997971 211.604523,131.836914 211.507217,126.041946 
	C211.353378,116.880135 211.351624,107.711746 211.512878,98.550140 
	C211.613708,92.821136 214.122986,90.639748 219.946960,90.299561 
	C224.863815,90.012344 231.430283,92.456696 234.222733,89.225166 
	C236.649323,86.417007 234.928879,80.032433 235.056610,75.228775 
	C235.209686,69.471092 237.591766,66.951683 243.253616,66.899719 
	C252.417328,66.815613 261.582947,66.814796 270.746643,66.900017 
	C276.415222,66.952736 278.696808,69.468170 278.972870,75.229622 
	C279.209290,80.164742 276.816833,86.756348 280.028046,89.552139 
	C282.814392,91.978073 289.240540,90.171387 294.054718,90.333641 
	C299.880402,90.529984 302.385223,92.824051 302.486755,98.556999 
	C302.648987,107.718559 302.589844,116.885559 302.509796,126.049263 
	C302.467560,130.885284 300.335175,134.007660 294.605957,134.121765 
z"/>
<path fill="#A3D2FD" opacity="1.000000" stroke="none" 
	d="
M154.393524,312.998352 
	C154.392578,317.830292 154.304977,322.165009 154.425247,326.493896 
	C154.490585,328.845123 153.659790,329.703888 151.257690,329.693512 
	C134.262115,329.620056 117.265945,329.622070 100.270325,329.690369 
	C97.878189,329.699982 97.132698,328.858795 97.137032,326.488342 
	C97.197113,293.663025 97.202194,260.837524 97.128082,228.012299 
	C97.122459,225.522079 98.007553,224.956039 100.312904,224.966461 
	C117.308441,225.043320 134.305679,225.115921 151.299515,224.929276 
	C155.366943,224.884613 154.371201,227.413391 154.373474,229.518814 
	C154.403412,257.178772 154.393433,284.838745 154.393524,312.998352 
z"/>
<path fill="#A3D2FD" opacity="1.000000" stroke="none" 
	d="
M400.996582,225.007095 
	C405.161377,225.007111 408.846680,225.242386 412.487274,224.939514 
	C415.975250,224.649323 416.951630,225.763351 416.919403,229.304703 
	C416.740387,248.964859 416.833618,268.627502 416.833618,288.289307 
	C416.833618,300.786224 416.738098,313.284363 416.901123,325.779144 
	C416.941376,328.867126 415.999390,329.742828 412.951721,329.718536 
	C396.456848,329.587036 379.959656,329.577148 363.465057,329.724976 
	C360.301788,329.753357 359.559265,328.699890 359.567932,325.704712 
	C359.661438,293.379669 359.675415,261.054047 359.549500,228.729218 
	C359.537018,225.527008 360.546844,224.901474 363.507660,224.939896 
	C375.835846,225.099869 388.167267,225.007141 400.996582,225.007095 
z"/>
<path fill="#EEF0F2" opacity="1.000000" stroke="none" 
	d="
M268.187195,103.253624 
	C273.926514,105.191734 279.453644,104.152428 284.905426,104.236908 
	C287.778931,104.281448 288.508240,105.185555 288.580811,107.965286 
	C288.898499,120.133568 288.988495,120.130325 277.028595,120.132973 
	C275.363281,120.133339 273.682465,120.004547 272.035645,120.183121 
	C267.627655,120.661110 265.019806,122.992828 264.970154,127.629257 
	C264.923767,131.958862 264.797638,136.296951 265.008453,140.616562 
	C265.141022,143.333496 264.119873,143.877533 261.582703,143.946655 
	C249.051086,144.287979 249.053238,144.366913 249.050690,131.789871 
	C249.048615,121.573387 247.576172,120.132957 237.133560,120.131943 
	C224.770538,120.130737 224.858887,120.134674 225.417313,107.626427 
	C225.536087,104.966026 226.389557,104.184822 228.935425,104.278053 
	C233.259277,104.436378 237.596924,104.407372 241.922806,104.269814 
	C246.520813,104.123604 248.928604,101.572380 249.025467,96.994492 
	C249.113510,92.832756 249.195526,88.660805 248.998337,84.506737 
	C248.870224,81.807915 249.547348,80.840195 252.494202,80.786285 
	C264.950500,80.558418 264.926544,80.446457 264.965668,92.978493 
	C264.976868,96.570145 264.183105,100.439774 268.187195,103.253624 
z"/>
</svg>