<svg version="1.1" id="Layer_1" xmlns="http://www.w3.org/2000/svg" xmlns:xlink="http://www.w3.org/1999/xlink" x="0px" y="0px"
	 width="100%" viewBox="0 0 512 512" enable-background="new 0 0 512 512" xml:space="preserve">
<path fill="#010202" opacity="1.000000" stroke="none" 
	d="
M1.000000,177.000000 
	C1.000000,119.333336 1.039024,62.166576 0.902922,5.000231 
	C0.894768,1.575241 1.576367,0.903139 5.000061,0.905342 
	C172.999985,1.013444 341.000000,1.013444 508.999939,0.905342 
	C512.423645,0.903139 513.096802,1.576367 513.094604,5.000061 
	C512.986511,172.999985 512.986511,341.000000 513.094604,508.999939 
	C513.096802,512.423645 512.423645,513.096802 508.999939,513.094604 
	C341.000000,512.986511 172.999985,512.986511 5.000061,513.094604 
	C1.576367,513.096802 0.901072,512.423889 0.904658,508.999908 
	C1.020375,398.500031 1.000000,288.000000 1.000000,177.000000 
z"/>
<path fill="#E2ECF6" opacity="1.000000" stroke="none" 
	d="
M331.272278,483.342224 
	C330.871338,452.191711 330.715637,421.395752 330.876160,390.601379 
	C330.899292,386.165344 329.776184,385.121521 325.381958,385.138397 
	C279.766479,385.313904 234.149689,385.325745 188.534393,385.124329 
	C183.947708,385.104095 183.112579,386.421814 183.137466,390.685120 
	C183.315369,421.150208 183.219650,451.616913 183.108093,482.541962 
	C181.599991,484.372681 179.830048,484.777985 177.959549,484.831848 
	C172.295013,484.994965 166.623016,485.109650 160.966644,484.796478 
	C155.994934,484.521210 154.622589,483.011597 154.184143,477.993408 
	C154.009979,475.999817 154.071198,473.996185 154.071152,471.996582 
	C154.068634,334.839508 154.064911,197.682434 154.094421,60.525372 
	C154.095123,57.237595 153.516968,53.824657 155.673889,50.361401 
	C157.812363,49.896690 159.637970,49.762852 161.463623,49.762569 
	C230.083374,49.751919 298.703247,49.801876 367.322632,49.648991 
	C372.088348,49.638374 373.712708,50.399349 373.705688,55.729851 
	C373.519073,197.799026 373.545959,339.868500 373.445404,482.386658 
	C372.152618,484.523743 370.302338,484.733276 368.497101,484.768188 
	C357.623657,484.978638 346.748688,484.940002 335.874512,484.794464 
	C334.382874,484.774506 332.917908,484.525848 331.272278,483.342224 
z"/>
<path fill="#BFD3E5" opacity="1.000000" stroke="none" 
	d="
M155.531799,49.858593 
	C155.977249,192.515579 155.989548,335.062958 155.859711,477.610168 
	C155.855560,482.178802 157.330215,483.299194 161.588486,483.099762 
	C168.401215,482.780701 175.239716,483.012268 182.536301,483.005920 
	C184.207581,498.010376 184.207581,498.010376 169.716354,498.010376 
	C161.385696,498.010376 153.049362,497.831299 144.727051,498.094879 
	C141.193039,498.206787 140.294556,497.137634 140.325638,493.665405 
	C140.494232,474.839600 140.405563,456.011536 140.405563,437.184235 
	C140.405563,310.058350 140.441742,182.932434 140.275208,55.806782 
	C140.268448,50.643547 141.614731,48.996109 146.588837,49.667778 
	C149.371109,50.043476 152.244522,49.744118 155.531799,49.858593 
z"/>
<path fill="#24ECD6" opacity="1.000000" stroke="none" 
	d="
M402.714630,129.912079 
	C419.870911,129.468124 436.654755,129.380493 453.437958,129.229309 
	C455.394135,129.211685 456.177246,129.971085 456.011658,131.871460 
	C455.954132,132.531509 456.005890,133.201004 456.005798,133.866180 
	C455.999847,181.260345 455.993683,228.654510 455.922882,276.511780 
	C454.067871,278.884125 451.680542,278.864044 449.362091,278.877960 
	C436.394073,278.955750 423.425079,278.998352 410.457794,278.871521 
	C403.103607,278.799591 401.168640,276.981140 401.147919,269.694946 
	C401.021179,225.137527 401.062073,180.579819 401.118988,136.022232 
	C401.121521,134.027664 401.196625,132.016815 402.714630,129.912079 
z"/>
<path fill="#24ECD6" opacity="1.000000" stroke="none" 
	d="
M72.702835,129.827225 
	C89.393120,129.408508 105.711777,129.415787 122.027061,129.185242 
	C125.754196,129.132568 125.425484,131.290482 125.423615,133.691635 
	C125.406059,156.179977 125.419350,178.668335 125.411774,201.156693 
	C125.403358,226.143478 125.382462,251.130280 125.258530,276.577759 
	C123.260002,278.713440 120.935410,278.884735 118.583138,278.894958 
	C105.603790,278.951385 92.623711,279.005341 79.645233,278.876831 
	C72.693115,278.807983 71.144035,277.293579 71.127739,270.234741 
	C71.024818,225.638733 71.060898,181.042542 71.102936,136.446426 
	C71.104973,134.287506 71.102936,132.099609 72.702835,129.827225 
z"/>
<path fill="#6987A0" opacity="1.000000" stroke="none" 
	d="
M130.713943,16.482395 
	C136.205200,16.083914 141.369522,16.011757 146.533829,16.011311 
	C228.522888,16.004223 310.512024,16.043610 392.500824,15.905615 
	C397.002655,15.898038 398.859680,16.942358 398.204010,21.597425 
	C397.610535,25.810955 400.038666,31.277241 397.094421,34.015865 
	C394.422577,36.501049 389.125549,34.735645 384.994690,34.736889 
	C300.672882,34.762257 216.351089,34.735001 131.574646,34.644524 
	C127.748924,28.790495 128.869995,22.824471 130.713943,16.482395 
z"/>
<path fill="#93B5F5" opacity="1.000000" stroke="none" 
	d="
M264.515930,427.999756 
	C264.516052,419.844940 264.627106,412.187775 264.462097,404.536530 
	C264.395752,401.461121 265.036621,400.115631 268.552979,400.163788 
	C283.027802,400.362213 297.507935,400.337646 311.983673,400.176331 
	C315.209351,400.140411 315.820496,401.356720 315.812378,404.251801 
	C315.728516,434.205078 315.718842,464.158844 315.826202,494.111969 
	C315.836975,497.117920 315.134918,498.110596 311.979004,498.074005 
	C297.503418,497.906097 283.023407,497.893768 268.548279,498.080109 
	C265.211426,498.123047 264.427521,497.099762 264.447021,493.897858 
	C264.579742,472.099182 264.516205,450.299255 264.515930,427.999756 
z"/>
<path fill="#93B5F5" opacity="1.000000" stroke="none" 
	d="
M249.484055,411.019989 
	C249.484024,438.809052 249.411636,466.100922 249.569855,493.391418 
	C249.591034,497.046082 248.792450,498.170197 244.958740,498.101257 
	C230.818375,497.847015 216.668839,497.876740 202.527008,498.086395 
	C198.955322,498.139313 198.146072,497.051941 198.161606,493.618896 
	C198.295792,463.998322 198.317810,434.376434 198.144287,404.756287 
	C198.121201,400.814636 199.452530,400.117584 203.010391,400.168060 
	C216.653351,400.361633 230.307144,400.485901 243.942932,400.118073 
	C248.796783,399.987122 250.099808,401.682709 249.515182,406.033325 
	C249.317490,407.504486 249.483932,409.024597 249.484055,411.019989 
z"/>
<path fill="#BFD2E4" opacity="1.000000" stroke="none" 
	d="
M497.489929,448.654297 
	C497.904388,452.642059 497.736664,456.322052 498.074890,459.954895 
	C498.399963,463.446503 497.263611,464.387878 493.735687,464.354401 
	C474.420563,464.171021 455.102814,464.267059 435.785950,464.267059 
	C421.631348,464.267059 407.475494,464.164703 393.323090,464.340149 
	C389.856445,464.383118 388.430756,463.860504 388.443359,459.831451 
	C388.597595,410.540649 388.584137,361.249115 388.462067,311.958130 
	C388.452881,308.256653 389.338104,306.848145 393.162201,307.243591 
	C396.458252,307.584412 399.815857,307.329651 403.596405,307.474548 
	C407.026398,311.956146 405.509399,316.799164 405.591125,321.944214 
	C406.011719,324.563324 405.892334,326.729675 405.892609,328.888397 
	C405.897156,365.131012 405.895447,401.373627 405.896667,437.616241 
	C405.896729,439.611084 405.911652,441.604950 406.006805,443.599060 
	C406.112610,445.816620 407.247345,446.910553 409.449280,447.005676 
	C411.443604,447.091858 413.437775,447.094635 415.432678,447.105042 
	C437.540833,447.220398 459.650299,446.866516 482.238403,447.342804 
	C487.547089,447.323761 492.437408,446.286316 497.489929,448.654297 
z"/>
<path fill="#C0D3E5" opacity="1.000000" stroke="none" 
	d="
M124.750076,448.673767 
	C125.205620,449.117737 125.300163,449.272217 125.311035,449.432373 
	C126.318115,464.265808 126.317680,464.265808 111.591904,464.265808 
	C81.263168,464.265808 50.934132,464.202545 20.606110,464.349670 
	C17.006706,464.367126 15.874826,463.690857 15.887110,459.794922 
	C16.042624,410.469574 16.040493,361.143402 15.891212,311.817993 
	C15.879416,307.920410 17.038794,306.900665 20.659607,307.253601 
	C23.797211,307.559448 26.985460,307.345764 30.601261,307.501984 
	C34.019531,311.984314 32.505939,316.821259 32.591347,321.960541 
	C33.016796,324.580261 32.892460,326.747925 32.892780,328.907471 
	C32.898075,364.834900 32.896179,400.762329 32.897362,436.689758 
	C32.897427,438.685608 32.989147,440.684784 32.936989,442.676117 
	C32.852383,445.906006 34.429413,447.151581 37.519325,447.075562 
	C39.677620,447.022400 41.842808,447.090942 44.004940,447.103943 
	C65.624168,447.234100 87.245094,446.837311 109.347412,447.353851 
	C114.701439,447.281464 119.635170,446.231720 124.750076,448.673767 
z"/>
<path fill="#E3EDF6" opacity="1.000000" stroke="none" 
	d="
M497.917664,448.519226 
	C493.208801,448.996246 488.566742,449.009796 483.458984,449.011505 
	C480.590851,446.355072 481.127228,443.064545 481.123566,439.953918 
	C481.081818,404.312988 481.104156,368.671967 481.095276,333.030975 
	C481.092987,323.923431 481.077606,323.909882 472.164642,323.904816 
	C452.345581,323.893555 432.526520,323.918732 412.707520,323.883087 
	C410.066833,323.878326 407.352753,324.205566 404.481506,322.563477 
	C404.059692,317.674500 404.034485,313.070374 404.027893,308.038574 
	C414.028320,307.520264 424.009979,307.371704 433.991913,307.351166 
	C453.976227,307.310059 473.961243,307.414215 493.944550,307.264282 
	C497.233582,307.239624 498.090149,308.144196 498.073395,311.425568 
	C497.936462,338.237274 498.055878,365.050293 497.925751,391.862091 
	C497.908203,395.469208 498.406647,397.638458 502.650543,396.840057 
	C505.154388,396.369019 506.333893,397.330811 506.037598,400.061829 
	C505.823334,402.036987 505.765198,404.086853 506.042755,406.046021 
	C506.676361,410.518768 505.596222,413.006256 500.421356,412.033295 
	C497.310760,411.448425 498.016479,413.912567 498.011353,415.581177 
	C497.978210,426.405945 497.988464,437.230865 497.917664,448.519226 
z"/>
<path fill="#21CBB8" opacity="1.000000" stroke="none" 
	d="
M72.613281,129.390991 
	C73.049019,177.083511 73.058868,224.679596 72.924927,272.275269 
	C72.914436,276.002350 74.042854,277.145111 77.761246,277.103058 
	C93.236382,276.927979 108.714706,277.033691 124.670952,277.037415 
	C125.228630,281.027344 125.196922,285.022552 125.423904,289.002991 
	C125.579506,291.731567 124.360794,292.353821 121.880714,292.345459 
	C101.727531,292.277496 81.573273,292.219421 61.421288,292.389404 
	C57.741287,292.420471 57.977077,290.469452 57.981068,288.025421 
	C58.012356,268.871399 57.921181,249.716721 58.066887,230.563751 
	C58.094189,226.974716 57.594635,224.757080 53.333740,225.483871 
	C50.772961,225.920670 49.679237,224.770691 49.948612,222.134811 
	C50.117062,220.486511 50.069660,218.800934 49.960686,217.142487 
	C49.685661,212.956985 49.303879,209.047119 55.753712,210.059509 
	C59.200073,210.600449 57.936131,207.399124 57.941879,205.770370 
	C58.024181,182.452652 57.966942,159.134506 58.016144,135.816589 
	C58.032078,128.265686 56.955212,129.353119 64.656860,129.251984 
	C67.154243,129.219177 69.652832,129.277710 72.613281,129.390991 
z"/>
<path fill="#E3EDF6" opacity="1.000000" stroke="none" 
	d="
M31.549477,322.667419 
	C31.103086,317.762177 31.062912,313.128571 31.036966,308.068604 
	C36.534359,307.541199 42.017418,307.359894 47.500702,307.352783 
	C71.983894,307.321075 96.467461,307.397858 120.950035,307.270966 
	C124.320595,307.253510 125.512115,308.035156 125.501678,311.648132 
	C125.370293,357.116455 125.399063,402.585266 125.268509,448.507263 
	C120.519806,448.971527 115.889465,448.982483 110.816681,449.021912 
	C107.426750,446.683167 108.140862,443.312103 108.135307,440.251373 
	C108.072548,405.668579 108.153168,371.085571 108.071465,336.502869 
	C108.037758,322.238403 109.716949,324.000610 95.659889,323.926544 
	C77.038841,323.828430 58.416885,323.919434 39.795395,323.884796 
	C37.157192,323.879883 34.453239,324.202759 31.549477,322.667419 
z"/>
<path fill="#21CCB9" opacity="1.000000" stroke="none" 
	d="
M402.631989,129.444885 
	C403.067993,176.907471 403.085205,224.240295 402.965240,271.572784 
	C402.954803,275.672791 404.268250,277.148438 408.441132,277.098114 
	C423.938782,276.911133 439.439941,277.014587 455.398987,276.991943 
	C455.903961,281.137573 455.871063,285.303192 456.027618,289.461700 
	C456.109711,291.642181 455.260315,292.337677 453.134552,292.332306 
	C432.638245,292.280609 412.141602,292.271423 391.645355,292.338562 
	C389.140839,292.346771 388.425873,291.254242 388.604004,289.021057 
	C388.683258,288.027740 388.611694,287.022522 388.611694,286.022705 
	C388.611359,235.697998 388.661285,185.373138 388.523529,135.048813 
	C388.511597,130.683975 389.332275,128.487656 394.188751,129.184860 
	C396.803741,129.560287 399.511078,129.292557 402.631989,129.444885 
z"/>
<path fill="#6987A0" opacity="1.000000" stroke="none" 
	d="
M30.735043,479.775940 
	C61.386314,479.384003 91.670296,479.331818 121.953918,479.198090 
	C124.601669,479.186401 125.468628,480.219299 125.379356,482.742310 
	C125.249985,486.399078 125.111374,490.083496 125.414055,493.719727 
	C125.720192,497.397430 124.170280,498.074493 120.835670,498.060547 
	C91.212486,497.936462 61.588604,497.976166 31.501820,497.910767 
	C27.880543,492.044861 28.812735,486.081177 30.735043,479.775940 
z"/>
<path fill="#6987A0" opacity="1.000000" stroke="none" 
	d="
M403.730347,479.762634 
	C434.384247,479.374268 464.671143,479.325806 494.957733,479.198029 
	C497.441193,479.187531 498.115906,480.195862 498.019043,482.474518 
	C497.808197,487.433441 499.541290,493.731415 497.121490,496.982239 
	C494.761047,500.153351 488.106659,497.923859 483.353638,497.942108 
	C457.223358,498.042450 431.092438,497.978333 404.497620,497.920563 
	C400.884613,492.051208 401.807709,486.078491 403.730347,479.762634 
z"/>
<path fill="#6987A0" opacity="1.000000" stroke="none" 
	d="
M403.687012,96.408981 
	C425.960938,95.967140 447.917023,95.923637 469.872803,95.818382 
	C472.055481,95.807915 473.053802,96.301514 473.257782,98.809166 
	C474.511353,114.219612 474.580505,114.219620 459.323639,114.212532 
	C441.190216,114.204102 423.056824,114.184738 404.459473,114.094406 
	C400.967926,108.378273 401.653015,102.602852 403.687012,96.408981 
z"/>
<path fill="#6987A0" opacity="1.000000" stroke="none" 
	d="
M55.687996,96.416718 
	C77.993599,95.973618 99.980255,95.942062 121.966240,95.803886 
	C124.609924,95.787270 125.484261,96.764305 125.379745,99.307129 
	C125.236198,102.799706 125.135109,106.319221 125.406845,109.796646 
	C125.683151,113.332596 124.369339,114.309914 120.896645,114.284325 
	C99.573456,114.127228 78.248703,114.183189 56.461491,114.087189 
	C52.964600,108.372765 53.659557,102.602966 55.687996,96.416718 
z"/>
<path fill="#A6B3C1" opacity="1.000000" stroke="none" 
	d="
M330.798004,483.370941 
	C344.790131,483.002655 358.654663,483.018097 372.936707,482.934509 
	C373.407623,482.993042 373.494873,483.147491 373.509705,483.308655 
	C374.868439,498.082458 374.868103,498.082520 360.358185,498.082520 
	C351.705261,498.082520 343.048309,497.931427 334.401520,498.161652 
	C331.237091,498.245911 330.345184,497.257507 330.570831,494.232880 
	C330.830200,490.757019 330.656189,487.248810 330.798004,483.370941 
z"/>
<path fill="#526D83" opacity="1.000000" stroke="none" 
	d="
M403.634521,479.340576 
	C404.060669,485.279877 404.023926,491.116425 404.010345,497.411743 
	C403.536530,497.917389 403.040222,497.996857 402.542511,498.006531 
	C387.063690,498.308319 386.733459,497.898285 388.313843,482.358276 
	C388.547211,480.063873 389.339935,479.077454 391.674286,479.148285 
	C395.504089,479.264526 399.338898,479.216553 403.634521,479.340576 
z"/>
<path fill="#4E677B" opacity="1.000000" stroke="none" 
	d="
M130.574890,16.054976 
	C131.039963,21.981382 131.039032,27.840054 131.079041,34.134758 
	C127.144005,34.667667 123.163940,34.685150 119.193489,34.889435 
	C116.562584,35.024803 115.542244,33.881447 115.792931,31.365032 
	C115.825668,31.036345 115.775467,30.700062 115.797325,30.369520 
	C116.101311,25.772207 113.837097,19.852365 116.695488,16.919809 
	C119.579460,13.961010 125.519783,16.274929 130.574890,16.054976 
z"/>
<path fill="#526D83" opacity="1.000000" stroke="none" 
	d="
M30.638519,479.354706 
	C31.068764,485.284760 31.035101,491.111603 31.020073,497.396210 
	C15.732244,498.690979 15.829535,498.691437 15.900176,483.623871 
	C15.915878,480.274536 16.708397,478.792999 20.285252,479.109772 
	C23.560207,479.399780 26.876520,479.222717 30.638519,479.354706 
z"/>
<path fill="#58768E" opacity="1.000000" stroke="none" 
	d="
M403.541809,95.954254 
	C403.999908,101.712044 403.994904,107.396072 403.992706,113.549408 
	C400.024078,114.073753 396.048370,114.035980 392.082611,114.216560 
	C389.448517,114.336494 388.586395,113.207291 388.670074,110.697624 
	C388.796936,106.891823 388.808350,103.074799 388.667328,99.270004 
	C388.571228,96.678566 389.581085,95.723114 392.147278,95.827652 
	C395.785767,95.975883 399.434418,95.874947 403.541809,95.954254 
z"/>
<path fill="#57758D" opacity="1.000000" stroke="none" 
	d="
M55.544090,95.962448 
	C56.003048,101.714722 55.998951,107.392059 55.996685,113.537766 
	C52.041664,114.065643 48.079861,114.024689 44.129692,114.219551 
	C41.446114,114.351944 40.894363,113.117058 40.773788,110.683647 
	C40.033031,95.733124 39.979271,95.735786 55.544090,95.962448 
z"/>
<path fill="#050607" opacity="1.000000" stroke="none" 
	d="
M319.954529,249.470673 
	C330.781494,249.470566 330.781525,249.470566 330.781494,259.878174 
	C330.781464,292.375214 330.721802,324.872498 330.865051,357.368896 
	C330.881012,360.986877 330.158264,362.122559 326.283081,362.109863 
	C280.121155,361.958282 233.958374,361.963806 187.796356,362.102722 
	C184.056198,362.113983 183.108597,361.209595 183.125900,357.448334 
	C183.283691,323.118866 183.302048,288.787903 183.113983,254.458755 
	C183.090210,250.114990 184.518402,249.372375 188.474915,249.384750 
	C232.137177,249.521439 275.800018,249.470657 319.954529,249.470673 
z"/>
<path fill="#030304" opacity="1.000000" stroke="none" 
	d="
M286.267822,205.997803 
	C286.267609,210.495056 286.151855,214.497543 286.309601,218.489227 
	C286.407349,220.963196 285.804230,221.991364 283.037262,221.972122 
	C265.713776,221.851730 248.388260,221.829666 231.065308,221.985077 
	C227.867569,222.013763 227.675858,220.580383 227.694443,218.093185 
	C227.780396,206.599808 227.584274,195.102371 227.819000,183.613129 
	C227.892975,179.991302 227.125916,178.757629 223.230911,178.858032 
	C211.910980,179.149887 200.576553,178.839722 189.252548,179.037354 
	C185.953247,179.094955 184.666885,178.540070 184.716141,174.807297 
	C184.938126,157.985626 184.930695,141.157913 184.721329,124.335915 
	C184.675140,120.625633 185.964600,120.008156 189.284515,120.068222 
	C200.275208,120.267067 211.282578,119.857773 222.261063,120.274292 
	C227.109467,120.458237 227.942642,118.752365 227.827347,114.425766 
	C227.539001,103.605736 227.869339,92.770134 227.653961,81.946709 
	C227.583557,78.407875 228.234726,77.049614 232.213669,77.109062 
	C248.867966,77.357857 265.529053,77.305267 282.185394,77.137009 
	C285.517914,77.103340 286.395630,78.079956 286.342255,81.345177 
	C286.151703,93.002670 286.379883,104.666977 286.193573,116.324608 
	C286.143494,119.457695 287.099548,120.253403 290.134216,120.210258 
	C301.792480,120.044487 313.456573,120.265030 325.113770,120.065659 
	C328.415802,120.009201 329.295013,120.954048 329.263306,124.234047 
	C329.099152,141.223633 329.102264,158.216476 329.263123,175.206131 
	C329.292877,178.346069 328.386414,179.082764 325.348816,179.035263 
	C313.691071,178.852951 302.026672,179.083099 290.369476,178.883499 
	C287.100952,178.827545 286.080902,179.688309 286.190430,183.012695 
	C286.437164,190.500671 286.267822,198.002365 286.267822,205.997803 
z"/>
<path fill="#010707" opacity="1.000000" stroke="none" 
	d="
M430.006531,188.428009 
	C430.022797,189.383926 430.025177,189.882141 430.025452,190.380341 
	C430.032684,202.791611 429.540253,203.219543 417.127838,201.607025 
	C416.799744,201.564392 416.455872,201.613998 416.135498,201.545288 
	C413.968445,201.080444 414.390961,199.264481 414.566895,197.940475 
	C415.066406,194.181183 412.414581,188.393158 416.014069,187.107361 
	C419.985443,185.688721 425.536804,184.761551 430.006531,188.428009 
z"/>
<path fill="#000101" opacity="1.000000" stroke="none" 
	d="
M424.901123,253.963074 
	C428.941284,253.349014 430.213593,254.498199 430.123596,258.411621 
	C429.879944,269.005341 430.090179,268.851257 419.515045,269.048950 
	C415.766083,269.119019 413.814545,268.316467 414.568573,264.226837 
	C414.598206,264.066162 414.572754,263.895294 414.572174,263.729156 
	C414.536835,253.963074 414.536835,253.963074 424.901123,253.963074 
z"/>
<path fill="#010403" opacity="1.000000" stroke="none" 
	d="
M429.963318,233.805664 
	C425.499573,236.242920 420.408417,236.047623 416.467743,234.754395 
	C411.990234,233.284973 415.388489,227.879349 414.660370,224.285324 
	C414.361816,222.811508 413.688507,220.276047 416.674561,220.188828 
	C420.481720,220.077621 424.294678,220.179459 428.104858,220.150589 
	C430.127502,220.135254 430.010376,221.544601 430.012238,222.887161 
	C430.017029,226.366287 430.008759,229.845428 429.963318,233.805664 
z"/>
<path fill="#000202" opacity="1.000000" stroke="none" 
	d="
M428.676361,167.851074 
	C427.043030,167.903122 425.873718,167.997528 424.721741,167.895508 
	C421.462097,167.606796 416.470337,169.447830 415.322784,167.101501 
	C413.671173,163.724701 414.713837,159.033417 414.591827,154.903595 
	C414.547211,153.393112 415.360382,152.871735 416.744019,152.912109 
	C417.572754,152.936310 418.412140,152.827805 419.230988,152.919434 
	C422.773224,153.315720 428.424713,151.256378 429.424744,153.876373 
	C430.965027,157.911942 430.948822,163.183945 428.676361,167.851074 
z"/>
<path fill="#010707" opacity="1.000000" stroke="none" 
	d="
M83.976700,198.688278 
	C83.974548,196.395615 84.233620,194.524323 83.925659,192.751541 
	C82.985184,187.337769 85.423325,185.734558 90.396660,186.506210 
	C93.284721,186.954330 97.664261,185.081985 98.825821,187.400284 
	C100.681282,191.103561 99.431221,195.824112 99.366768,200.116028 
	C99.362358,200.409729 99.174576,200.754135 98.969292,200.982590 
	C97.735016,202.356125 85.369774,201.665787 84.047455,200.129669 
	C83.877007,199.931656 83.994499,199.485764 83.976700,198.688278 
z"/>
<path fill="#000101" opacity="1.000000" stroke="none" 
	d="
M96.874435,268.957428 
	C95.888481,268.962585 95.390152,268.963318 94.891815,268.963409 
	C82.463562,268.965668 82.501175,268.969971 83.945885,256.319519 
	C84.128265,254.722534 84.421150,253.804703 86.214821,253.955170 
	C87.204315,254.038147 88.212135,253.897980 89.202538,253.975479 
	C92.476280,254.231659 97.384499,252.436279 98.677994,254.689590 
	C100.786301,258.362305 99.421303,263.373047 99.247993,267.819061 
	C99.206055,268.894989 98.191467,268.898773 96.874435,268.957428 
z"/>
<path fill="#010403" opacity="1.000000" stroke="none" 
	d="
M83.982819,231.872467 
	C83.981186,219.699112 83.978889,219.797348 95.783852,220.073181 
	C98.592819,220.138809 99.791214,220.934326 99.441109,223.754868 
	C98.982460,227.449738 101.270454,232.843277 98.409836,234.471603 
	C95.134415,236.336029 90.068680,235.057953 85.780685,235.139664 
	C83.693344,235.179428 84.036591,233.637360 83.982819,231.872467 
z"/>
<path fill="#000202" opacity="1.000000" stroke="none" 
	d="
M83.996948,165.733063 
	C83.986839,164.926712 83.985336,164.594879 83.985146,164.263046 
	C83.978058,151.782150 83.978020,151.782822 96.634453,152.907181 
	C97.129494,152.951157 97.874413,152.755600 98.087242,153.014008 
	C100.915123,156.447586 98.889656,160.496216 99.367416,164.244308 
	C99.530083,165.520416 100.094742,167.710419 97.861603,167.784470 
	C93.428566,167.931473 88.962006,168.357620 84.553322,167.472397 
	C84.296638,167.420853 84.185204,166.645889 83.996948,165.733063 
z"/>
<path fill="#030404" opacity="1.000000" stroke="none" 
	d="
M403.952972,322.713684 
	C428.416901,322.300995 452.750061,322.455505 477.079742,322.229706 
	C481.724976,322.186584 483.172455,323.055511 483.142212,328.066864 
	C482.900787,368.064178 483.006958,408.063599 482.999939,448.531006 
	C457.521179,449.078491 432.048676,449.101532 406.577423,449.292084 
	C402.418182,449.323151 403.659760,446.538269 403.656982,444.536285 
	C403.605469,407.565491 403.613770,370.594574 403.627930,333.623688 
	C403.629272,330.132019 403.753723,326.640381 403.952972,322.713684 
z"/>
<path fill="#030404" opacity="1.000000" stroke="none" 
	d="
M31.105034,322.837891 
	C55.949390,322.379120 80.756233,322.452209 105.560913,322.253815 
	C109.516647,322.222168 110.547188,323.309540 110.532875,327.239380 
	C110.386063,367.528534 110.438759,407.818481 110.404999,448.579285 
	C84.909363,449.112915 59.444122,449.125244 33.980049,449.303680 
	C30.915827,449.325165 30.979361,447.808441 30.982197,445.631836 
	C31.035290,404.847900 31.046684,364.063904 31.105034,322.837891 
z"/>
<path fill="#92B4F4" opacity="1.000000" stroke="none" 
	d="
M289.000061,313.175415 
	C296.817535,313.175476 304.138031,313.298218 311.450989,313.116974 
	C314.505646,313.041260 315.925903,313.617767 315.828033,317.141266 
	C315.583374,325.948700 315.667572,334.768646 315.797150,343.580963 
	C315.834320,346.109436 315.199493,347.066895 312.487366,347.045593 
	C297.520721,346.927979 282.552338,346.936279 267.585510,347.041992 
	C265.125641,347.059357 264.470367,346.239868 264.497009,343.900238 
	C264.601135,334.754608 264.613251,325.606110 264.493805,316.460846 
	C264.458557,313.762085 265.549377,313.086670 268.045227,313.132965 
	C274.861420,313.259399 281.681519,313.175781 289.000061,313.175415 
z"/>
<path fill="#92B4F4" opacity="1.000000" stroke="none" 
	d="
M240.967834,346.990295 
	C227.666687,346.990204 214.859955,346.940735 202.054245,347.032074 
	C199.517517,347.050201 198.112198,346.764191 198.182526,343.622498 
	C198.383408,334.645905 198.362030,325.659851 198.192200,316.681976 
	C198.135590,313.689697 199.327179,313.107880 202.008667,313.126984 
	C216.477463,313.230072 230.948944,313.289825 245.415787,313.092865 
	C248.889679,313.045593 249.586960,314.310577 249.521637,317.420044 
	C249.350510,325.565948 249.232300,333.727234 249.562057,341.863373 
	C249.727097,345.935394 248.723694,347.782928 244.451752,347.015808 
	C243.485016,346.842194 242.460526,346.990295 240.967834,346.990295 
z"/>
<path fill="#93B6F5" opacity="1.000000" stroke="none" 
	d="
M264.542175,287.989258 
	C264.542542,281.175537 264.663513,274.856018 264.489532,268.544678 
	C264.409485,265.641266 265.120361,264.442902 268.319092,264.476959 
	C282.778137,264.630890 297.240204,264.600922 311.700104,264.494263 
	C314.558075,264.473175 315.889496,265.050537 315.812469,268.315063 
	C315.604736,277.119537 315.661377,285.933380 315.791046,294.740845 
	C315.828827,297.308167 315.073456,298.209259 312.427094,298.190826 
	C297.634674,298.087708 282.840454,298.065948 268.048645,298.204987 
	C265.103027,298.232697 264.253754,297.198425 264.507477,294.467224 
	C264.691162,292.489746 264.542633,290.481384 264.542175,287.989258 
z"/>
<path fill="#93B6F5" opacity="1.000000" stroke="none" 
	d="
M219.000351,264.542175 
	C227.977051,264.542358 236.456909,264.676270 244.928879,264.475922 
	C248.232773,264.397766 249.653595,265.105316 249.539749,268.791656 
	C249.278183,277.260284 249.347778,285.744690 249.516678,294.218048 
	C249.574997,297.144562 248.910156,298.255676 245.703934,298.217743 
	C231.079498,298.044678 216.451248,298.071777 201.825928,298.201965 
	C198.939758,298.227661 198.149979,297.288300 198.200821,294.494873 
	C198.358078,285.854828 198.430130,277.204956 198.174698,268.569611 
	C198.070389,265.043213 199.479660,264.383667 202.546021,264.490997 
	C207.858215,264.677002 213.181641,264.542389 219.000351,264.542175 
z"/>
<path fill="#93B6F5" opacity="1.000000" stroke="none" 
	d="
M271.244537,189.998566 
	C271.244080,194.831390 271.127930,199.168762 271.287048,203.496002 
	C271.380402,206.034378 270.635223,207.014236 267.936798,206.951233 
	C260.774414,206.783981 253.598724,206.711212 246.442200,206.975708 
	C243.084045,207.099854 242.673569,205.690048 242.703995,202.874405 
	C242.828278,191.376328 242.630051,179.873932 242.832748,168.378082 
	C242.892685,164.978821 242.108994,163.785019 238.483246,163.859711 
	C226.988708,164.096512 215.484680,163.843582 203.987808,164.014893 
	C200.843994,164.061737 199.620514,163.368210 199.753082,159.952591 
	C200.024368,152.963470 199.989319,145.951477 199.764160,138.959076 
	C199.662598,135.804550 200.728043,135.046631 203.748703,135.092010 
	C215.078918,135.262192 226.418686,134.957306 237.743149,135.263718 
	C242.035416,135.379852 242.956100,133.972076 242.853516,129.930984 
	C242.570206,118.772079 242.860153,107.599686 242.689438,96.436195 
	C242.640839,93.258408 243.388870,92.016357 246.815292,92.154137 
	C253.470856,92.421776 260.151581,92.411011 266.808319,92.158646 
	C270.245789,92.028320 271.393677,92.987778 271.325714,96.560005 
	C271.107056,108.055260 271.360962,119.559212 271.171265,131.055496 
	C271.116821,134.355865 272.084045,135.292587 275.378693,135.236084 
	C286.874725,135.039001 298.379181,135.306580 309.873901,135.073807 
	C313.478638,135.000809 314.367188,136.175720 314.239319,139.582840 
	C313.989471,146.239807 313.975739,152.920425 314.244202,159.575928 
	C314.383026,163.017776 313.464966,164.108673 309.888062,164.035080 
	C298.393494,163.798645 286.889130,164.063171 275.392853,163.873169 
	C272.155304,163.819641 271.051208,164.645584 271.168365,168.002716 
	C271.418030,175.160263 271.244568,182.332581 271.244537,189.998566 
z"/>
<path fill="#92B5F4" opacity="1.000000" stroke="none" 
	d="
M460.956848,378.301575 
	C447.807159,378.301361 435.152985,378.213470 422.501617,378.365112 
	C419.500031,378.401093 418.468231,377.649475 418.521240,374.492676 
	C418.708435,363.341064 418.669250,352.183533 418.542084,341.030243 
	C418.509888,338.206635 419.417633,337.295502 422.252838,337.319305 
	C436.236908,337.436829 450.223694,337.467865 464.206726,337.298737 
	C467.357758,337.260620 468.116180,338.251129 468.063416,341.263947 
	C467.885590,351.416656 467.996094,361.574432 467.995850,371.730255 
	C467.995667,378.295898 467.995300,378.295898 460.956848,378.301575 
z"/>
<path fill="#93B5F5" opacity="1.000000" stroke="none" 
	d="
M467.995422,409.003845 
	C467.995178,416.662903 467.880890,423.825745 468.053650,430.981689 
	C468.118164,433.654358 467.219727,434.329498 464.655090,434.309723 
	C450.502197,434.200623 436.347382,434.187378 422.194855,434.316254 
	C419.354034,434.342102 418.501831,433.479004 418.537628,430.652405 
	C418.678833,419.497742 418.693207,408.338776 418.531525,397.184662 
	C418.486389,394.072083 419.541870,393.232666 422.548065,393.261566 
	C436.533966,393.395935 450.522736,393.402496 464.508423,393.256195 
	C467.486481,393.225006 468.182312,394.307312 468.044434,397.017883 
	C467.850098,400.837830 467.995361,404.675049 467.995422,409.003845 
z"/>
<path fill="#92B5F4" opacity="1.000000" stroke="none" 
	d="
M46.004219,373.903076 
	C46.004242,362.590668 46.099281,351.766602 45.940804,340.946320 
	C45.898655,338.068604 46.816658,337.291748 49.611328,337.316223 
	C63.596436,337.438812 77.583511,337.420013 91.569115,337.330109 
	C94.185966,337.313263 95.506943,337.793274 95.465828,340.852753 
	C95.313751,352.172852 95.352333,363.496674 95.445885,374.818054 
	C95.466087,377.263092 94.937469,378.376038 92.172691,378.353333 
	C77.854477,378.235840 63.533447,378.195038 49.216564,378.376892 
	C45.867474,378.419403 45.797993,376.744568 46.004219,373.903076 
z"/>
<path fill="#93B5F5" opacity="1.000000" stroke="none" 
	d="
M46.004620,404.033203 
	C46.004620,393.320465 46.004620,393.320404 56.456131,393.320496 
	C68.112740,393.320587 79.770370,393.404694 91.425247,393.262939 
	C94.397369,393.226776 95.516129,394.012299 95.469505,397.158508 
	C95.304207,408.313110 95.324249,419.472595 95.460930,430.627960 
	C95.495155,433.421661 94.705223,434.345032 91.829269,434.317932 
	C77.676079,434.184631 63.519901,434.166718 49.367298,434.328674 
	C46.263790,434.364166 45.924877,433.057007 45.959713,430.504608 
	C46.077866,421.847015 46.004696,413.186798 46.004620,404.033203 
z"/>
</svg>