<svg version="1.1" id="Layer_1" xmlns="http://www.w3.org/2000/svg" xmlns:xlink="http://www.w3.org/1999/xlink" x="0px" y="0px"
	 width="100%" viewBox="0 0 512 512" enable-background="new 0 0 512 512" xml:space="preserve">
<path fill="#000001" opacity="1.000000" stroke="none" 
	d="
M513.000000,185.000000 
	C513.000000,293.140381 512.980347,400.780823 513.085266,508.421082 
	C513.088806,512.021667 512.511047,513.108826 508.580933,513.105896 
	C340.788666,512.982849 172.996277,512.983643 5.204008,513.106201 
	C1.474625,513.108887 0.911111,512.188843 0.913173,508.705933 
	C1.012558,340.913635 1.010954,173.121262 0.922011,5.328941 
	C0.920218,1.946902 1.340079,0.883502 5.169115,0.886499 
	C173.128006,1.017990 341.087036,1.014581 509.045959,0.899965 
	C512.560669,0.897567 513.096924,1.718245 513.090027,5.044243 
	C512.966248,64.862633 513.000000,124.681351 513.000000,185.000000 
z"/>
<path fill="#61DAF9" opacity="1.000000" stroke="none" 
	d="
M435.402710,497.478607 
	C401.426392,497.896942 367.771332,497.927673 334.116547,498.045715 
	C331.711243,498.054138 331.022552,497.305359 331.028564,494.926208 
	C331.100128,466.599915 331.105957,438.273315 331.023193,409.947083 
	C331.015564,407.340210 332.106995,406.894318 334.307037,407.003021 
	C336.966278,407.134399 339.642975,407.133606 342.302216,406.996887 
	C347.800995,406.714142 351.785278,402.993591 351.931274,397.495636 
	C352.156769,389.003693 352.133942,380.498993 351.960358,372.004944 
	C351.847839,366.499664 348.052551,362.713348 342.584137,362.147797 
	C341.263824,362.011261 339.920685,362.080383 338.588043,362.080322 
	C284.267883,362.077789 229.947708,362.076294 175.627533,362.079681 
	C165.024948,362.080322 161.981293,365.142151 161.975891,375.778931 
	C161.972504,382.443970 161.925797,389.109528 161.990097,395.773956 
	C162.061050,403.125641 165.787186,406.894806 172.969223,407.032745 
	C182.926300,407.224060 182.926300,407.224091 182.926300,417.218231 
	C182.926285,442.712036 182.852539,468.206329 183.011612,493.699158 
	C183.033600,497.222656 182.101929,498.095673 178.610596,498.083282 
	C141.620041,497.951935 104.628525,497.935028 67.638229,498.100586 
	C63.745594,498.118042 62.801712,496.956207 63.075626,493.335632 
	C63.388992,489.193695 63.420975,484.986877 63.073540,480.850433 
	C62.706463,476.480042 63.835819,474.930511 68.649994,474.993469 
	C90.974106,475.285400 113.304161,475.130341 135.632080,475.119232 
	C146.706940,475.113739 151.021667,470.794037 151.035233,459.725250 
	C151.046875,450.227539 151.103439,440.729248 151.015594,431.232330 
	C150.937851,422.829803 146.074661,417.890594 137.622864,417.857971 
	C114.628784,417.769165 91.633301,417.723145 68.640488,417.914703 
	C64.477257,417.949402 63.011520,417.258911 63.022915,412.572571 
	C63.201630,339.090820 63.185387,265.608429 63.050518,192.126495 
	C63.042892,187.973572 64.089058,186.936066 68.232788,186.940231 
	C190.202988,187.063080 312.173309,187.047501 434.611877,187.129913 
	C437.522125,189.853241 436.857513,193.163696 436.861816,196.252777 
	C436.914307,233.885513 436.894287,271.518341 436.894684,309.151154 
	C436.895020,342.121490 436.906616,375.091858 436.876312,408.062164 
	C436.873566,411.032104 437.265686,414.083893 435.418213,417.240936 
	C416.247650,417.676270 397.423950,417.752716 378.600250,417.821472 
	C367.164062,417.863251 362.974243,422.054321 362.963989,433.506866 
	C362.955658,442.838623 362.909149,452.170776 362.979401,461.502014 
	C363.044952,470.214050 367.898743,475.074280 376.644257,475.104095 
	C395.807434,475.169464 414.970917,475.138947 434.600006,475.232971 
	C438.171814,482.495819 437.127563,489.798615 435.402710,497.478607 
z"/>
<path fill="#FD75A7" opacity="1.000000" stroke="none" 
	d="
M343.295776,140.786972 
	C341.162140,141.155899 339.338287,141.318359 337.514343,141.318771 
	C278.868866,141.332077 220.223373,141.330048 161.577881,141.329300 
	C155.280609,141.329208 155.194687,141.325027 155.296097,134.828125 
	C155.524811,120.174995 154.641983,105.506866 155.848740,90.867691 
	C157.052917,76.260193 162.029694,63.006485 170.515381,51.110252 
	C173.385406,47.086716 175.858810,43.274567 172.042358,38.575493 
	C170.923935,37.198421 172.086334,36.541473 172.826874,35.720337 
	C176.154495,32.030548 179.882492,28.784019 183.779968,25.714388 
	C185.047531,24.716074 186.164169,24.726772 187.301331,25.805956 
	C190.620682,28.956068 194.121246,28.566847 197.823441,26.498951 
	C211.374969,18.929609 225.965103,15.599326 241.437851,16.003178 
	C256.911469,16.407051 272.421478,15.032051 287.862274,16.938694 
	C289.673462,17.162338 291.459106,17.592989 293.646179,18.057148 
	C294.518494,18.501671 295.099457,18.496632 295.884583,18.776146 
	C296.144775,18.878202 296.070679,18.921015 296.059570,18.879696 
	C321.207306,30.682657 335.220428,51.347965 342.171021,77.467674 
	C344.100006,84.716560 344.788147,92.169136 344.653870,99.725983 
	C344.452820,111.040604 344.620605,122.361443 344.586609,133.679520 
	C344.579681,135.988770 344.860535,138.364395 343.295776,140.786972 
z"/>
<path fill="#DFE8F2" opacity="1.000000" stroke="none" 
	d="
M328.000214,156.313187 
	C374.162720,156.313187 419.825348,156.371231 465.487305,156.216507 
	C469.699585,156.202225 470.764618,157.422501 470.669159,161.497650 
	C470.422150,172.044846 470.612183,172.049286 459.974609,172.049286 
	C323.153870,172.049286 186.333115,172.018341 49.512554,172.172363 
	C44.496239,172.178009 43.052299,171.065384 43.293495,165.975281 
	C43.750599,156.328690 43.423500,156.313171 53.025341,156.313171 
	C144.516953,156.313171 236.008575,156.313187 328.000214,156.313187 
z"/>
<path fill="#017297" opacity="1.000000" stroke="none" 
	d="
M316.062958,432.000000 
	C316.062927,452.654510 315.983032,472.809601 316.135345,492.962952 
	C316.163177,496.649811 315.500336,498.189575 311.304291,498.104980 
	C297.318420,497.823120 283.322571,497.920715 269.332367,498.056274 
	C266.121552,498.087402 264.574585,497.577545 264.595245,493.786926 
	C264.745148,466.304321 264.738739,438.820251 264.601074,411.337524 
	C264.582703,407.672913 265.934174,406.932037 269.259766,406.967896 
	C283.416229,407.120575 297.576965,407.149750 311.732300,406.951843 
	C315.338501,406.901459 316.251526,408.115875 316.131531,411.514526 
	C315.896545,418.168854 316.062775,424.837372 316.062958,432.000000 
z"/>
<path fill="#017297" opacity="1.000000" stroke="none" 
	d="
M202.190002,407.032898 
	C216.662109,407.032562 230.657806,407.161987 244.648224,406.947266 
	C248.426971,406.889282 249.424423,408.035858 249.404312,411.747223 
	C249.257187,438.900909 249.265244,466.056030 249.397629,493.209839 
	C249.415070,496.790161 248.655807,498.156372 244.742767,498.091034 
	C230.586411,497.854523 216.422043,497.880096 202.264542,498.079559 
	C198.662994,498.130310 197.852341,496.928253 197.867828,493.531219 
	C197.992310,466.210724 197.953125,438.889374 197.913132,411.568390 
	C197.909149,408.854767 197.851852,406.379822 202.190002,407.032898 
z"/>
<path fill="#03CDF8" opacity="1.000000" stroke="none" 
	d="
M435.520996,417.699860 
	C435.067566,341.107483 435.063782,264.611877 435.070068,187.661057 
	C438.907623,187.147385 442.755554,187.312775 446.556732,186.965775 
	C450.162048,186.636658 450.944366,187.995361 450.933472,191.428864 
	C450.812988,229.415146 450.857574,267.401947 450.857880,305.388611 
	C450.858002,322.549255 450.916168,339.710205 450.822357,356.870331 
	C450.796387,361.624573 452.310303,364.978241 457.655609,366.157288 
	C459.045593,372.517853 458.283783,378.798859 458.222137,385.481567 
	C452.543121,387.134155 450.547058,390.629272 450.796814,396.092468 
	C451.069550,402.057617 450.684937,408.051941 450.927429,414.019714 
	C451.056488,417.196777 449.912384,418.069000 446.925964,417.879761 
	C443.287079,417.649170 439.623535,417.806885 435.520996,417.699860 
z"/>
<path fill="#E3ECF7" opacity="1.000000" stroke="none" 
	d="
M283.000000,392.039581 
	C248.851166,392.039581 215.202072,391.981293 181.553848,392.124481 
	C177.958557,392.139801 176.758804,391.479034 176.857452,387.589447 
	C177.124023,377.078796 176.909485,377.073364 187.523056,377.073364 
	C235.664230,377.073364 283.805573,377.129486 331.946228,376.972565 
	C336.039612,376.959229 337.283478,377.828125 337.143829,382.071442 
	C336.816071,392.031677 337.056183,392.039551 326.976959,392.039551 
	C312.484650,392.039551 297.992310,392.039581 283.000000,392.039581 
z"/>
<path fill="#017297" opacity="1.000000" stroke="none" 
	d="
M70.095306,460.102386 
	C63.126888,460.082428 63.125072,460.082428 63.122631,453.725769 
	C63.120457,448.061005 63.210663,442.394318 63.084221,436.732391 
	C63.025864,434.119354 63.601826,432.795593 66.627502,432.808960 
	C88.619629,432.905945 110.612480,432.892120 132.604797,432.821106 
	C135.179489,432.812775 136.130829,433.634827 136.074265,436.262421 
	C135.934479,442.757172 135.834808,449.265259 136.108978,455.751526 
	C136.261047,459.349487 134.972000,460.195953 131.561279,460.172089 
	C111.235802,460.030060 90.908836,460.102142 70.095306,460.102386 
z"/>
<path fill="#017196" opacity="1.000000" stroke="none" 
	d="
M110.938629,100.927567 
	C111.296631,99.940216 111.581039,99.335365 111.782761,98.704102 
	C117.389908,81.157127 123.057991,82.204422 137.898270,82.215141 
	C140.479370,82.217010 141.424591,83.080055 141.156921,85.761818 
	C139.451935,102.843819 140.431778,119.983002 140.257889,137.097626 
	C140.229431,139.898239 139.707535,141.339355 136.447220,141.299911 
	C124.143883,141.151093 111.835869,141.123581 99.533501,141.308975 
	C95.553703,141.368973 96.103394,139.670807 97.091431,137.117111 
	C101.705666,125.191208 106.254364,113.239944 110.938629,100.927567 
z"/>
<path fill="#FA5592" opacity="1.000000" stroke="none" 
	d="
M343.369446,141.193268 
	C342.992523,126.608124 343.063782,112.146919 342.989716,97.686478 
	C342.887848,77.802086 336.785004,59.946400 324.661865,44.150059 
	C316.884399,34.016045 307.420532,25.836287 296.220825,19.135136 
	C317.053314,23.570282 332.951965,35.661579 344.884338,53.192406 
	C354.203766,66.884392 358.519257,82.248169 358.701935,98.747261 
	C358.843597,111.542374 358.643921,124.341385 358.803650,137.136078 
	C358.842834,140.277069 358.132385,141.696045 354.715302,141.432495 
	C351.079834,141.152069 347.408539,141.336258 343.369446,141.193268 
z"/>
<path fill="#017297" opacity="1.000000" stroke="none" 
	d="
M435.307983,459.557617 
	C417.191040,459.988922 399.397705,459.994354 381.605621,460.149109 
	C378.768616,460.173767 377.849365,459.234436 377.919495,456.429474 
	C378.081604,449.947174 378.134064,443.452179 377.902191,436.974121 
	C377.782867,433.641022 378.967316,432.769257 382.173584,432.796600 
	C399.469177,432.944427 416.766541,432.887909 434.527924,432.965698 
	C435.540314,433.654633 436.196533,434.293549 436.263763,435.122711 
	C436.915436,443.162323 437.896210,451.216736 435.307983,459.557617 
z"/>
<path fill="#017297" opacity="1.000000" stroke="none" 
	d="
M403.244537,140.749237 
	C394.540192,141.122559 386.056732,141.068146 377.580780,141.294312 
	C374.340973,141.380753 373.716125,139.954285 373.748108,137.117401 
	C373.862457,126.971375 373.880951,116.822205 373.758301,106.676369 
	C373.684021,100.532249 373.323853,94.390045 373.016907,88.250740 
	C372.712006,82.152557 372.670685,82.154625 379.492310,82.474854 
	C382.574341,83.497749 383.651825,85.807091 384.596954,88.113625 
	C391.028900,103.810463 396.657623,119.818062 402.893494,135.591705 
	C403.496918,137.118088 404.095184,138.723953 403.244537,140.749237 
z"/>
<path fill="#025E7E" opacity="1.000000" stroke="none" 
	d="
M403.482666,141.122620 
	C396.770630,122.977066 389.738220,105.184715 382.674500,87.405594 
	C382.075104,85.897011 380.982910,84.584236 380.018127,82.884216 
	C391.447357,81.132912 396.709808,84.183319 400.745026,94.728920 
	C406.083557,108.680420 411.299408,122.679901 416.774994,136.577209 
	C418.291962,140.427368 417.452118,141.600235 413.412323,141.253860 
	C410.277374,140.985107 407.102051,141.187271 403.482666,141.122620 
z"/>
<path fill="#025E7E" opacity="1.000000" stroke="none" 
	d="
M435.449219,459.996643 
	C434.989899,451.276703 434.995819,442.619324 434.997131,433.495728 
	C439.140381,432.979950 443.291412,433.013031 447.434814,432.850403 
	C449.991943,432.750031 450.976776,433.716187 450.932281,436.313293 
	C450.815613,443.118469 450.810059,449.928436 450.933746,456.733337 
	C450.982300,459.404388 449.852173,460.203430 447.368927,460.119293 
	C443.554474,459.990051 439.733002,460.068726 435.449219,459.996643 
z"/>
<path fill="#03CBF5" opacity="1.000000" stroke="none" 
	d="
M435.535187,497.918640 
	C435.069458,490.634613 435.057556,483.424255 435.055695,475.766174 
	C439.200531,475.250061 443.340820,475.287506 447.468140,475.074493 
	C450.020081,474.942780 450.999359,475.758667 450.914612,478.425537 
	C450.741089,483.885895 450.720459,489.360901 450.921539,494.819366 
	C451.024353,497.610474 449.841888,498.147278 447.415955,498.048920 
	C443.612457,497.894745 439.798492,497.998047 435.535187,497.918640 
z"/>
<path fill="#2BD2FA" opacity="1.000000" stroke="none" 
	d="
M458.416412,385.749390 
	C458.009674,379.661774 458.008942,373.419800 458.010284,366.727509 
	C460.132416,372.638885 458.636322,379.152252 458.416412,385.749390 
z"/>
<path fill="#FA5592" opacity="1.000000" stroke="none" 
	d="
M295.949127,18.656120 
	C295.575806,18.791716 295.006836,18.705229 294.236816,18.402683 
	C294.608337,18.269096 295.180908,18.351566 295.949127,18.656120 
z"/>
<path fill="#010304" opacity="1.000000" stroke="none" 
	d="
M243.088074,286.995331 
	C253.907089,286.995453 264.239655,286.962555 274.571869,287.005646 
	C283.580109,287.043182 288.582184,291.817993 288.718536,300.790283 
	C288.870483,310.787079 288.886536,320.790253 288.714020,330.786346 
	C288.563385,339.514771 283.729797,344.297974 274.909302,344.413666 
	C262.912506,344.571014 250.910080,344.582916 238.913834,344.404175 
	C230.151413,344.273560 225.419708,339.411316 225.275620,330.613098 
	C225.133728,321.949524 225.241287,313.281860 225.242722,304.615967 
	C225.244995,290.872467 229.063339,286.997833 243.088074,286.995331 
z"/>
<path fill="#010304" opacity="1.000000" stroke="none" 
	d="
M288.757263,230.116547 
	C288.757050,238.765182 288.844299,246.931961 288.733582,255.096054 
	C288.606628,264.457214 283.855133,269.166290 274.458527,269.234406 
	C262.794006,269.318939 251.127914,269.322571 239.463486,269.232758 
	C230.111755,269.160736 225.361801,264.401276 225.265442,255.020538 
	C225.166153,245.356171 225.162292,235.689117 225.267578,226.024872 
	C225.368637,216.750122 230.283875,211.960449 239.559067,211.928406 
	C250.057556,211.892136 260.556244,211.918610 271.054871,211.919174 
	C285.098755,211.919937 288.750488,215.574707 288.757263,230.116547 
z"/>
<path fill="#000202" opacity="1.000000" stroke="none" 
	d="
M163.543884,269.145813 
	C150.762634,269.204590 138.431839,269.291687 126.101852,269.226410 
	C116.570320,269.175934 111.953957,264.561066 111.900513,255.160599 
	C111.844620,245.329422 111.836609,235.497330 111.904648,225.666306 
	C111.965584,216.863159 116.767220,211.983002 125.424103,211.939667 
	C137.588181,211.878784 149.753220,211.863693 161.917038,211.946472 
	C170.024490,212.001648 174.976532,216.919968 175.060104,225.032837 
	C175.166504,235.363144 175.152908,245.695938 175.064194,256.026581 
	C175.000504,263.445190 171.469437,267.499573 163.543884,269.145813 
z"/>
<path fill="#000202" opacity="1.000000" stroke="none" 
	d="
M338.910126,237.004089 
	C338.920380,232.341125 338.802277,228.171890 338.969788,224.014145 
	C339.248230,217.103943 344.193176,212.067368 351.103607,211.985992 
	C364.094025,211.833008 377.088959,211.827805 390.079102,211.992447 
	C396.759064,212.077103 401.866211,217.014069 401.998932,223.659271 
	C402.225067,234.980530 402.229492,246.313522 401.982635,257.634094 
	C401.841461,264.107788 396.998474,268.959778 390.427155,269.081360 
	C377.108337,269.327881 363.777679,269.340759 350.459900,269.065643 
	C343.773712,268.927490 339.154297,263.797760 338.972351,256.990234 
	C338.798889,250.498566 338.919037,243.999054 338.910126,237.004089 
z"/>
<path fill="#000202" opacity="1.000000" stroke="none" 
	d="
M342.118225,291.182922 
	C345.238495,288.015808 348.724091,286.939148 352.759918,286.968689 
	C364.572845,287.055206 376.386993,286.958893 388.200287,287.012573 
	C397.188171,287.053436 402.041107,291.894653 402.098969,300.884491 
	C402.163208,310.867371 402.178223,320.851501 402.093750,330.834076 
	C402.021790,339.337250 397.381104,344.240509 388.901245,344.371368 
	C376.591553,344.561340 364.274078,344.571899 351.964935,344.363403 
	C343.551727,344.220978 338.984436,339.245270 338.927124,330.671143 
	C338.860413,320.688293 338.953217,310.704407 338.889618,300.721558 
	C338.867645,297.270172 339.534637,294.124786 342.118225,291.182922 
z"/>
<path fill="#000202" opacity="1.000000" stroke="none" 
	d="
M127.145752,344.430115 
	C115.993462,344.000427 111.917877,339.867554 111.892487,329.375549 
	C111.869110,319.711945 111.821968,310.047546 111.911758,300.384705 
	C111.989212,292.049622 116.980263,287.075043 125.334480,287.020264 
	C137.330261,286.941559 149.327148,286.953796 161.323135,287.014923 
	C170.063599,287.059479 174.997177,291.917297 175.068527,300.569336 
	C175.149582,310.398956 175.122650,320.229919 175.080032,330.060028 
	C175.038147,339.717255 170.423813,344.334808 160.613495,344.409180 
	C149.617523,344.492584 138.620453,344.429504 127.145752,344.430115 
z"/>
<path fill="#040303" opacity="1.000000" stroke="none" 
	d="
M274.152710,124.483368 
	C270.519989,126.887390 266.771637,126.278702 263.143585,126.320694 
	C257.645050,126.384338 252.143051,126.427094 246.646301,126.306648 
	C239.413544,126.148163 235.646317,122.413864 235.351135,115.141632 
	C235.202576,111.481323 235.159134,107.801178 235.366104,104.146881 
	C235.534164,101.179848 234.671082,99.916504 231.487122,100.129471 
	C227.671494,100.384674 223.823029,100.271233 219.993118,100.163635 
	C213.691605,99.986603 209.537460,96.271667 209.289856,90.003395 
	C208.994064,82.516258 209.005234,75.001099 209.276291,67.512291 
	C209.510040,61.054626 213.732346,57.253101 220.309265,57.056461 
	C224.138794,56.941959 227.985779,56.848358 231.803589,57.086685 
	C234.750244,57.270630 235.526016,56.142509 235.367935,53.381153 
	C235.158768,49.727036 235.214676,46.047905 235.345184,42.386242 
	C235.611481,34.914608 239.511688,31.070312 246.947601,30.978203 
	C253.779022,30.893585 260.613861,30.876492 267.444458,30.991108 
	C274.317566,31.106438 278.257263,34.899052 278.628540,41.778835 
	C278.834778,45.600868 278.897888,49.458344 278.619873,53.270256 
	C278.385925,56.478004 279.599182,57.286179 282.590179,57.086819 
	C286.240021,56.843544 289.921021,56.950615 293.584473,57.052998 
	C300.193573,57.237713 304.453583,60.976055 304.710571,67.413918 
	C305.009430,74.900742 305.007233,82.417366 304.714935,89.904625 
	C304.461670,96.391693 300.267761,100.034279 293.599792,100.171631 
	C289.768494,100.250549 285.928345,100.320183 282.103516,100.145607 
	C279.501160,100.026833 278.527344,100.930634 278.644196,103.553375 
	C278.807251,107.212265 278.698944,110.884102 278.675964,114.550194 
	C278.652008,118.370949 277.722473,121.812675 274.152710,124.483368 
z"/>
<path fill="#017094" opacity="1.000000" stroke="none" 
	d="
M273.781372,304.379822 
	C273.802643,311.661652 273.692383,318.483612 273.858765,325.298859 
	C273.932556,328.321075 272.900879,329.389709 269.849304,329.335785 
	C261.203186,329.182953 252.551529,329.202698 243.904526,329.326843 
	C241.084686,329.367310 240.091476,328.356323 240.150055,325.552216 
	C240.288986,318.902222 240.254425,312.246490 240.161606,305.594879 
	C240.128296,303.207428 240.630539,301.917236 243.438278,301.958405 
	C252.584076,302.092377 261.733032,302.008301 270.880798,302.012939 
	C272.252045,302.013611 273.626312,302.035522 273.781372,304.379822 
z"/>
<path fill="#017094" opacity="1.000000" stroke="none" 
	d="
M240.190887,238.025040 
	C240.189972,226.940063 240.189972,226.939667 250.911392,226.940201 
	C257.391876,226.940536 263.873810,227.022705 270.352081,226.903458 
	C272.906311,226.856461 273.895477,227.720016 273.846985,230.339218 
	C273.720978,237.149689 273.726807,243.965347 273.842865,250.776154 
	C273.887573,253.400253 272.839935,254.241348 270.312286,254.214828 
	C261.340302,254.120682 252.366394,254.129745 243.394089,254.205383 
	C241.038162,254.225220 240.114090,253.327682 240.169647,250.981140 
	C240.267929,246.829376 240.193115,242.673523 240.190887,238.025040 
z"/>
<path fill="#017297" opacity="1.000000" stroke="none" 
	d="
M143.998978,254.181000 
	C139.336594,254.180573 135.168213,254.055771 131.011520,254.222458 
	C128.172638,254.336304 126.747070,253.678665 126.852005,250.413086 
	C127.065842,243.758514 126.994171,237.090912 126.877586,230.431549 
	C126.833748,227.927719 127.552132,226.859619 130.249146,226.899048 
	C139.073654,227.028046 147.902435,227.028854 156.726883,226.898041 
	C159.419556,226.858109 160.148956,227.907349 160.104111,230.420441 
	C159.985306,237.079742 159.915176,243.747406 160.129532,250.401947 
	C160.234238,253.652542 158.843399,254.352112 155.986984,254.222473 
	C152.164551,254.049026 148.328293,254.180405 143.998978,254.181000 
z"/>
<path fill="#017297" opacity="1.000000" stroke="none" 
	d="
M369.003021,226.942688 
	C374.165161,226.943573 378.834167,227.087906 383.488953,226.893021 
	C386.403534,226.770996 387.194336,227.927383 387.132904,230.671082 
	C386.983826,237.329178 387.009766,243.994034 387.119934,250.653625 
	C387.161102,253.142227 386.455322,254.257568 383.749664,254.220108 
	C374.924988,254.097946 366.096497,254.097580 357.271820,254.220596 
	C354.571320,254.258240 353.855347,253.160812 353.897858,250.662735 
	C354.011230,244.003250 354.033447,237.338379 353.886475,230.680176 
	C353.826263,227.952316 354.581207,226.730103 357.515350,226.895630 
	C361.167450,227.101700 364.840088,226.943573 369.003021,226.942688 
z"/>
<path fill="#017297" opacity="1.000000" stroke="none" 
	d="
M372.994720,329.286285 
	C367.664185,329.285736 362.827789,329.162384 358.001495,329.330139 
	C355.110229,329.430634 353.775970,328.668579 353.873810,325.460785 
	C354.076874,318.801941 354.017242,312.131073 353.894012,305.468323 
	C353.847382,302.945618 354.582275,301.919556 357.271210,301.960236 
	C366.100372,302.093811 374.933136,302.053284 383.763702,301.980499 
	C385.960052,301.962402 387.159790,302.444122 387.118225,304.989685 
	C387.004089,311.986084 386.993286,318.987183 387.122040,325.983063 
	C387.172577,328.728333 385.912811,329.393158 383.489685,329.310272 
	C380.161102,329.196442 376.825623,329.284485 372.994720,329.286285 
z"/>
<path fill="#017297" opacity="1.000000" stroke="none" 
	d="
M127.060699,303.319702 
	C128.692841,301.348480 130.623779,302.061371 132.364563,302.043274 
	C140.331268,301.960297 148.300522,302.084625 156.266251,301.963715 
	C158.886154,301.923950 160.207718,302.455353 160.123367,305.481781 
	C159.933838,312.282166 159.979233,319.092896 160.103149,325.896240 
	C160.151123,328.529572 159.105469,329.343811 156.587845,329.316528 
	C147.791351,329.221191 138.992233,329.204498 130.196274,329.320557 
	C127.448830,329.356842 126.851273,328.108307 126.885963,325.692505 
	C126.990822,318.390503 126.949089,311.086365 127.060699,303.319702 
z"/>
<path fill="#DFE8F3" opacity="1.000000" stroke="none" 
	d="
M236.698502,85.188416 
	C235.235870,85.188408 234.236832,85.188408 233.237778,85.188408 
	C223.750488,85.188377 222.532242,83.584801 224.125076,74.063667 
	C224.511444,71.754112 225.841507,72.044487 227.291901,72.036949 
	C231.454498,72.015312 235.620087,72.120476 239.779297,71.998474 
	C246.110077,71.812798 249.951843,68.063553 250.250336,61.699501 
	C250.437363,57.711781 250.531921,53.693901 250.254761,49.718357 
	C250.030807,46.506119 251.252808,45.883278 254.220749,45.883076 
	C263.681091,45.882431 263.680664,45.755299 263.681732,55.138771 
	C263.681976,57.136868 263.621185,59.137573 263.700958,61.132584 
	C263.979187,68.092926 267.757874,71.844147 274.648010,72.017799 
	C276.811279,72.072319 278.984375,71.916412 281.139801,72.057777 
	C283.907257,72.239296 288.171570,70.733681 289.108826,72.761261 
	C290.510834,75.794296 289.739105,79.861824 289.763885,83.490196 
	C289.777954,85.546700 288.084930,85.158493 286.837250,85.171944 
	C282.841492,85.214996 278.840454,85.071404 274.849884,85.222939 
	C267.704132,85.494286 263.897522,89.385643 263.706879,96.531311 
	C263.604767,100.358345 263.538727,104.197441 263.729767,108.017426 
	C263.864594,110.714394 262.786743,111.322128 260.259003,111.405731 
	C250.321671,111.734367 250.324692,111.824890 250.324249,102.038811 
	C250.324203,100.873253 250.329025,99.707657 250.322891,98.542137 
	C250.271194,88.723785 247.026016,85.431877 236.698502,85.188416 
z"/>
</svg>