<svg version="1.1" id="Layer_1" xmlns="http://www.w3.org/2000/svg" xmlns:xlink="http://www.w3.org/1999/xlink" x="0px" y="0px"
	 width="100%" viewBox="0 0 512 512" enable-background="new 0 0 512 512" xml:space="preserve">
<path fill="#010101" opacity="1.000000" stroke="none" 
	d="
M273.000000,513.000000 
	C183.355087,513.000000 94.210152,512.978333 5.065363,513.085754 
	C1.785432,513.089722 0.895078,512.625122 0.897568,509.067139 
	C1.015112,341.108185 1.017002,173.149170 0.891070,5.190250 
	C0.888245,1.422896 1.862204,0.914325 5.307806,0.916290 
	C173.100143,1.011978 340.892548,1.011672 508.684875,0.917964 
	C512.110718,0.916050 513.113281,1.395368 513.110352,5.182933 
	C512.982666,173.141846 512.985107,341.100891 513.101624,509.059845 
	C513.104065,512.602905 512.237610,513.091858 508.941925,513.087158 
	C430.461395,512.974976 351.980682,513.000000 273.000000,513.000000 
z"/>
<path fill="#E3EDF6" opacity="1.000000" stroke="none" 
	d="
M76.679550,268.743225 
	C78.706146,268.327057 80.365326,268.193237 82.024529,268.193085 
	C203.468124,268.183350 324.911743,268.206787 446.355225,268.092407 
	C450.701569,268.088318 452.152069,268.890106 452.136932,273.648163 
	C451.945770,333.786224 452.005249,393.925110 451.927002,454.526611 
	C450.505768,456.462494 448.701538,456.751160 446.865387,456.776031 
	C435.297119,456.932739 423.728180,456.927551 412.159760,456.779694 
	C410.664490,456.760620 409.191132,456.528442 407.539001,455.324585 
	C407.124268,445.654724 407.027771,436.326385 407.023956,426.997986 
	C407.006989,385.669128 406.988708,344.340210 407.070435,303.011505 
	C407.076874,299.757660 406.951874,298.063110 402.720032,298.069427 
	C305.564117,298.214294 208.407852,298.215393 111.251930,298.068390 
	C106.928589,298.061859 106.966393,299.922699 106.970055,303.075317 
	C107.028564,353.403107 107.005730,403.730988 106.931198,454.521912 
	C105.503334,456.466431 103.688454,456.757416 101.835732,456.801788 
	C95.172050,456.961487 88.501312,457.086304 81.844971,456.758392 
	C77.060051,456.522614 75.718956,455.052155 75.234039,450.355530 
	C75.079895,448.862579 75.106209,447.359467 75.106010,445.859833 
	C75.098526,389.702789 75.095222,333.545715 75.119255,277.388672 
	C75.120461,274.580505 74.796608,271.692902 76.679550,268.743225 
z"/>
<path fill="#B6E6FA" opacity="1.000000" stroke="none" 
	d="
M196.676544,313.725128 
	C206.013718,313.324799 214.998810,313.199921 223.983948,313.193695 
	C258.451294,313.169861 292.918854,313.242004 327.385590,313.098816 
	C331.024933,313.083710 332.122833,313.844055 332.109955,317.690247 
	C331.956268,363.479645 332.003937,409.269714 331.924255,455.522034 
	C329.889954,458.024353 327.304199,457.863068 324.828888,457.866150 
	C284.502472,457.916748 244.175949,457.939850 203.849594,457.856689 
	C196.699539,457.841949 195.181931,456.393707 195.157486,449.399658 
	C195.041016,416.072296 195.087921,382.744568 195.126129,349.416962 
	C195.128036,347.749023 195.216797,346.083252 195.906464,344.048553 
	C198.381454,340.569214 201.769043,341.496277 204.808624,341.306793 
	C209.838455,340.993347 210.147980,340.529602 210.337616,335.297821 
	C210.482117,331.311707 209.087982,329.448334 204.931274,329.668060 
	C202.314819,329.806427 199.598480,329.977661 196.808365,328.308716 
	C194.591782,323.376709 194.677612,318.724182 196.676544,313.725128 
z"/>
<path fill="#B5E5F8" opacity="1.000000" stroke="none" 
	d="
M186.786301,83.790932 
	C199.893829,62.307426 219.115479,49.928593 243.193939,45.097260 
	C261.045868,41.515274 278.330872,43.856136 294.432068,52.689434 
	C297.439728,54.339458 299.084229,54.354115 300.409332,51.000206 
	C301.519165,48.191105 303.034210,46.913303 305.696930,49.897049 
	C306.929779,51.278557 308.888947,52.014740 310.525726,53.032402 
	C314.593994,55.561790 317.933533,57.982338 312.273468,62.572163 
	C309.938812,64.465378 313.017059,65.616447 314.077545,66.625793 
	C326.789429,78.724854 334.777161,93.366173 337.779388,110.639503 
	C343.470764,143.384811 328.130371,177.741074 299.499268,195.985199 
	C298.637634,196.411255 298.001831,196.472961 297.257904,196.956070 
	C297.091827,197.218872 297.090942,197.118561 297.138489,197.134598 
	C264.706940,206.131470 235.932190,198.981766 211.030121,176.659134 
	C192.514679,160.061539 183.387360,138.700500 181.548904,114.122597 
	C180.820877,104.389633 182.511108,94.910469 185.772858,85.309311 
	C185.980530,84.951775 186.007019,84.996002 185.981277,84.997452 
	C186.275589,84.742226 186.546524,84.441338 186.786301,83.790932 
z"/>
<path fill="#B36020" opacity="1.000000" stroke="none" 
	d="
M473.912506,237.702103 
	C476.000122,241.938934 477.612488,245.937439 479.384033,249.864105 
	C480.465057,252.260178 479.902588,253.294601 477.240601,253.148087 
	C476.077576,253.084076 474.907928,253.143021 473.741272,253.143021 
	C329.242249,253.143311 184.743210,253.143326 40.244171,253.143051 
	C39.077522,253.143051 37.907333,253.079666 36.744926,253.148849 
	C33.939522,253.315781 33.735462,252.121216 34.692802,249.823120 
	C37.957169,241.987045 41.170288,234.127487 44.238472,226.213120 
	C45.187904,223.764038 46.685390,223.003342 49.172985,223.122360 
	C52.831753,223.297363 56.503471,223.201538 60.635757,223.298828 
	C62.467529,226.166992 60.768002,228.535355 60.011616,231.014709 
	C58.695976,235.327286 59.049713,235.879349 63.645405,236.091263 
	C65.641083,236.183258 67.640984,236.126190 69.638969,236.126205 
	C200.844360,236.127319 332.049744,236.121338 463.255127,236.156952 
	C466.697021,236.157883 470.282166,235.474396 473.912506,237.702103 
z"/>
<path fill="#E7955C" opacity="1.000000" stroke="none" 
	d="
M474.238098,237.596039 
	C472.322754,238.020401 470.324860,238.113449 468.326996,238.113556 
	C333.171997,238.120377 198.017029,238.119766 62.862041,238.119705 
	C61.862129,238.119705 60.855663,238.044403 59.863472,238.131714 
	C56.154369,238.458099 55.455765,236.912598 56.903782,233.716476 
	C58.344547,230.536392 59.611546,227.277588 61.028290,223.714935 
	C69.319412,223.307861 77.555183,222.882538 85.747948,223.300339 
	C90.900032,223.563065 92.935432,222.028351 92.073395,216.481689 
	C96.678596,213.144608 101.389206,213.788467 106.505188,215.703888 
	C107.181732,223.170258 107.181732,223.170410 114.492958,223.170410 
	C230.282776,223.170456 346.072662,223.211182 461.862213,223.036057 
	C467.015625,223.028244 469.870544,224.265533 471.106262,229.322876 
	C471.770569,232.041748 473.116974,234.593948 474.238098,237.596039 
z"/>
<path fill="#89D5F2" opacity="1.000000" stroke="none" 
	d="
M196.570221,313.296448 
	C197.025436,317.981659 197.022263,322.568115 197.050232,327.623749 
	C199.795639,332.702606 199.252182,337.440002 197.325256,342.599609 
	C197.003647,378.806732 197.064301,414.634155 196.886063,450.460358 
	C196.864380,454.815582 197.985123,456.123871 202.454041,456.106201 
	C245.279388,455.936981 288.105652,456.001190 331.390686,455.991455 
	C331.951050,460.601288 333.828217,466.379150 331.163330,469.472107 
	C328.880310,472.121826 323.011230,470.187073 318.733948,470.223846 
	C307.249329,470.322601 295.760742,470.394867 284.279388,470.176758 
	C280.678101,470.108368 278.849213,470.905823 279.517853,474.800079 
	C280.148773,478.474792 278.316681,479.456787 274.998016,479.053192 
	C273.357727,478.853729 271.646576,478.828247 270.013733,479.055878 
	C265.872131,479.633209 263.622498,478.483948 264.456573,473.809235 
	C264.984955,470.847900 263.379181,470.017944 260.691193,470.263428 
	C259.040436,470.414185 257.341705,470.468262 255.704514,470.256409 
	C251.318695,469.688904 248.541504,470.618591 249.487701,475.918579 
	C249.896713,478.209595 248.825989,479.305969 246.382156,479.046844 
	C244.900742,478.889740 243.380844,478.917053 241.892456,479.037415 
	C237.257523,479.412292 233.169220,479.545776 234.364807,472.681641 
	C234.935272,469.406403 231.885788,470.297699 230.118256,470.290588 
	C215.636826,470.232330 201.152863,470.120239 186.674881,470.351166 
	C182.915573,470.411133 181.990417,469.402527 182.000549,465.660034 
	C182.134109,416.389435 182.129425,367.118256 182.007690,317.847595 
	C181.998703,314.208191 182.748367,312.677795 186.631607,313.106506 
	C189.756943,313.451569 192.949234,313.190063 196.570221,313.296448 
z"/>
<path fill="#70E4BF" opacity="1.000000" stroke="none" 
	d="
M361.606995,313.763733 
	C370.930206,313.330139 379.904388,313.388092 388.868530,313.115662 
	C392.311707,313.011017 392.033325,314.969116 392.027832,317.213196 
	C391.997559,329.514496 392.016937,341.815918 392.013031,354.117279 
	C392.002319,387.696503 391.988495,421.275726 391.903198,455.302734 
	C391.478394,456.100494 391.207153,456.624481 390.725739,456.734528 
	C381.709656,458.795929 372.633728,458.194763 363.584045,457.112122 
	C361.574371,456.871704 360.804230,454.914673 360.453461,453.022827 
	C359.995880,450.554779 360.108734,448.054077 360.108215,445.563782 
	C360.099976,404.847565 360.092163,364.131348 360.123230,323.415131 
	C360.125610,320.289246 359.672058,317.072296 361.606995,313.763733 
z"/>
<path fill="#71E4BF" opacity="1.000000" stroke="none" 
	d="
M136.642883,313.741638 
	C145.959213,313.330780 154.934891,313.385010 163.900925,313.116821 
	C167.288559,313.015472 167.115143,314.893585 167.113190,317.188599 
	C167.074219,363.077911 167.065033,408.967255 166.966370,455.302765 
	C166.528107,456.096527 166.251465,456.617218 165.772491,456.727722 
	C156.758453,458.807434 147.681702,458.177094 138.630966,457.129120 
	C136.625488,456.896881 135.831314,454.963501 135.463791,453.067322 
	C135.049759,450.931213 135.109360,448.765411 135.108673,446.606812 
	C135.098587,415.032898 135.097992,383.459015 135.110641,351.885101 
	C135.111633,349.397400 134.989075,346.891907 135.911392,344.038574 
	C138.391891,340.570007 141.776459,341.496368 144.814987,341.307068 
	C149.839600,340.994080 150.148987,340.530212 150.338028,335.298065 
	C150.481857,331.317047 149.095154,329.447723 144.937363,329.667847 
	C142.322021,329.806335 139.607422,329.976440 136.815872,328.315918 
	C134.585190,323.394653 134.699585,318.746185 136.642883,313.741638 
z"/>
<path fill="#C2D4E6" opacity="1.000000" stroke="none" 
	d="
M76.586876,268.297974 
	C77.028435,328.938293 77.043678,389.478149 76.913704,450.017761 
	C76.905251,453.956604 78.029861,455.246857 81.994690,455.108032 
	C89.968376,454.828918 97.958427,455.017334 106.401337,454.998871 
	C106.915108,459.142487 106.879852,463.303925 107.060173,467.455994 
	C107.153946,469.615265 106.435181,470.318634 104.247032,470.304443 
	C91.095871,470.219055 77.943642,470.220551 64.792427,470.300873 
	C62.620171,470.314178 61.733047,469.620270 61.990173,467.455048 
	C62.087643,466.634277 62.004978,465.792175 62.004974,464.959778 
	C62.004925,401.198944 62.062035,337.437988 61.887615,273.677643 
	C61.874794,268.992004 63.198376,267.573822 67.644096,268.108551 
	C70.434845,268.444244 73.296799,268.188080 76.586876,268.297974 
z"/>
<path fill="#01DAA8" opacity="1.000000" stroke="none" 
	d="
M361.507812,313.309692 
	C361.956390,359.049103 362.013458,404.694427 361.851837,450.338989 
	C361.836273,454.733978 362.982361,456.145782 367.431519,455.938965 
	C375.244659,455.575775 383.086090,455.821350 391.373077,455.781250 
	C391.980225,460.381409 393.817291,466.222321 391.202576,469.285126 
	C388.709961,472.204926 382.744080,470.119598 378.314484,470.192932 
	C369.151520,470.344604 359.981506,470.109772 350.820312,470.307739 
	C347.687592,470.375488 346.942657,469.365936 346.948151,466.340302 
	C347.038086,416.680206 347.040527,367.019836 346.945496,317.359741 
	C346.939362,314.160858 347.675598,312.828156 351.062500,313.117920 
	C354.372070,313.401062 357.722870,313.202515 361.507812,313.309692 
z"/>
<path fill="#01DAA8" opacity="1.000000" stroke="none" 
	d="
M136.532379,313.310913 
	C136.999374,318.002625 137.011368,322.600403 137.082138,327.668030 
	C139.767075,332.731720 139.213913,337.445312 137.362152,342.573303 
	C137.025314,379.092957 137.039291,415.235718 136.900925,451.377899 
	C136.887421,454.907684 138.009018,455.998138 141.478546,455.906067 
	C149.634521,455.689636 157.799713,455.821320 166.422043,455.780518 
	C167.855942,470.238831 167.855942,470.238953 153.431000,470.238739 
	C144.281982,470.238617 135.131470,470.144989 125.984840,470.292419 
	C123.121460,470.338593 121.931313,469.787384 121.938278,466.518127 
	C122.044685,416.614624 122.032562,366.710846 121.958397,316.807251 
	C121.954231,314.000977 122.728859,312.941620 125.601517,313.127258 
	C129.080872,313.352203 132.584351,313.203857 136.532379,313.310913 
z"/>
<path fill="#B25F20" opacity="1.000000" stroke="none" 
	d="
M106.924805,215.586578 
	C102.259262,216.013412 97.652206,215.994293 92.589417,216.003860 
	C91.810539,208.147614 91.810539,208.147583 83.662422,208.147552 
	C73.251534,208.147522 62.840652,208.147552 51.676563,208.147552 
	C55.663494,198.303452 59.386784,189.135941 63.084404,179.958099 
	C63.791992,178.201828 65.236420,178.140503 66.778465,178.155334 
	C70.594040,178.192078 74.409828,178.207733 78.691650,178.329803 
	C80.808456,181.175247 79.110710,183.557907 78.278374,186.002243 
	C76.701797,190.632217 76.940804,191.105499 81.953445,191.182755 
	C89.270210,191.295517 96.589226,191.215454 103.907280,191.216202 
	C128.688934,191.218750 153.470596,191.216171 178.252243,191.219955 
	C180.574600,191.220306 182.919266,191.038559 185.606857,191.973648 
	C191.678909,197.628036 197.553650,202.915863 204.482971,207.400726 
	C202.484009,208.619690 200.814529,208.117294 199.250793,208.119415 
	C170.766785,208.157867 142.282715,208.128220 113.798691,208.159897 
	C105.743073,208.168854 107.176651,207.375214 106.924805,215.586578 
z"/>
<path fill="#B25F1F" opacity="1.000000" stroke="none" 
	d="
M455.601654,192.703156 
	C458.047516,197.839920 460.104248,202.669617 462.348083,207.938675 
	C411.062775,207.938675 360.563965,207.938675 308.994171,207.938675 
	C316.035217,202.830963 322.257446,198.214340 327.643921,192.190125 
	C330.508026,191.259048 333.134491,191.096466 335.812164,191.098602 
	C372.697876,191.128006 409.583588,191.104904 446.469269,191.139359 
	C449.422760,191.142105 452.486938,190.677719 455.601654,192.703156 
z"/>
<path fill="#89D5F3" opacity="1.000000" stroke="none" 
	d="
M185.683151,85.135429 
	C185.404526,93.531235 182.653076,101.868362 183.021652,110.545425 
	C184.211121,138.547394 194.860046,161.868118 216.964005,179.669556 
	C239.469803,197.794601 264.973877,202.476700 292.839020,197.237030 
	C293.970123,197.024323 295.154510,197.095078 296.750061,197.092194 
	C283.339325,206.041168 267.920349,208.810852 251.891953,207.658722 
	C213.993210,204.934586 184.158386,178.845367 176.540695,141.698425 
	C172.494400,121.967010 175.099472,102.960564 185.683151,85.135429 
z"/>
<path fill="#E7945B" opacity="1.000000" stroke="none" 
	d="
M455.971649,192.638046 
	C414.480682,193.031052 372.970581,193.054672 331.460449,193.055710 
	C330.484131,193.055740 329.507843,192.802261 328.236938,192.360901 
	C329.651672,190.019455 331.826080,188.216934 332.983276,185.905182 
	C336.472198,178.935486 342.008545,177.900696 349.288422,177.993271 
	C381.231903,178.399582 413.183990,178.254440 445.131470,178.060760 
	C449.174347,178.036240 451.190063,179.172195 452.258789,183.027435 
	C453.139374,186.204117 454.695648,189.193497 455.971649,192.638046 
z"/>
<path fill="#B25F20" opacity="1.000000" stroke="none" 
	d="
M161.848679,147.730560 
	C163.770370,152.837738 165.333084,157.691330 166.884277,162.509109 
	C165.053940,163.511902 163.364975,163.127853 161.745728,163.129303 
	C132.957932,163.155197 104.169785,163.081161 75.382660,163.222229 
	C71.197906,163.242737 69.641983,162.857483 71.799759,158.253983 
	C75.039551,151.342041 77.768440,144.178345 80.446938,137.021530 
	C81.549652,134.075150 83.102028,132.811371 86.300293,133.096909 
	C89.603851,133.391861 92.949310,133.217392 96.740936,133.368820 
	C98.812805,136.206100 97.226250,138.608047 96.416924,141.061737 
	C94.884483,145.707718 95.124893,146.201736 100.099472,146.223358 
	C117.989494,146.301117 135.879959,146.228714 153.770126,146.275192 
	C156.385025,146.281982 159.105804,145.873383 161.848679,147.730560 
z"/>
<path fill="#EB975D" opacity="1.000000" stroke="none" 
	d="
M185.858215,191.774353 
	C184.752319,193.582977 182.970566,193.040802 181.375977,193.042160 
	C147.240692,193.071320 113.105377,193.070663 78.970070,193.057831 
	C73.418251,193.055740 73.363518,192.902924 75.514458,187.907883 
	C76.762947,185.008575 77.897575,182.060242 79.120605,178.780853 
	C97.457573,178.345169 115.757309,178.243057 134.057175,178.186920 
	C146.039505,178.150162 158.024078,178.304031 170.003220,178.105301 
	C173.654495,178.044739 176.169754,178.767639 178.190353,182.170380 
	C180.204330,185.561981 183.134399,188.409592 185.858215,191.774353 
z"/>
<path fill="#B35F1F" opacity="1.000000" stroke="none" 
	d="
M436.857300,146.752594 
	C439.192932,151.258316 440.985870,155.702362 442.911194,160.088303 
	C443.998444,162.565048 443.212067,163.186279 440.680908,163.181427 
	C410.443512,163.123474 380.205933,163.125092 349.968536,163.174728 
	C347.306976,163.179092 346.922607,162.388718 347.818542,159.958130 
	C349.191956,156.232315 350.173553,152.362076 351.541809,148.265625 
	C353.515350,146.485062 355.625000,146.166519 357.820618,146.159256 
	C383.029999,146.075851 408.239410,146.121689 433.448822,146.138290 
	C434.447876,146.138947 435.432678,146.289474 436.857300,146.752594 
z"/>
<path fill="#E6945B" opacity="1.000000" stroke="none" 
	d="
M437.236511,146.475632 
	C435.978333,148.575226 434.028961,148.069809 432.269958,148.070801 
	C405.756439,148.085831 379.242950,148.065842 352.245819,148.016098 
	C352.116516,145.854294 352.475433,143.731216 352.824341,141.606506 
	C354.210175,133.168030 354.209015,133.167831 362.895508,133.167831 
	C384.144897,133.167816 405.395905,133.304840 426.642303,133.051865 
	C430.873627,133.001465 432.994385,134.284439 434.068207,138.248322 
	C434.799561,140.947998 436.088684,143.496552 437.236511,146.475632 
z"/>
<path fill="#EA975D" opacity="1.000000" stroke="none" 
	d="
M162.194183,147.557220 
	C140.209793,148.016617 118.211685,148.003418 96.214363,148.128937 
	C92.769691,148.148590 91.615021,147.481522 93.352432,143.966324 
	C94.892693,140.850006 95.892288,137.466476 97.167992,133.845123 
	C117.348381,133.388107 137.491486,133.306274 157.634048,133.154984 
	C159.606613,133.140182 160.185974,134.056976 160.420715,135.788986 
	C160.934433,139.579315 161.585663,143.351013 162.194183,147.557220 
z"/>
<path fill="#C6D9EC" opacity="1.000000" stroke="none" 
	d="
M407.101562,455.446228 
	C421.763641,454.990417 436.349182,454.997711 451.393951,454.997223 
	C451.905884,459.147522 451.865234,463.309784 452.049347,467.462036 
	C452.146301,469.648895 451.375854,470.299622 449.215759,470.286041 
	C436.063416,470.203156 422.910004,470.199127 409.757721,470.286407 
	C407.523804,470.301208 406.902252,469.512787 406.979095,467.395874 
	C407.117981,463.571503 407.022583,459.738678 407.101562,455.446228 
z"/>
<path fill="#89D5F3" opacity="1.000000" stroke="none" 
	d="
M297.406067,197.187073 
	C297.564514,196.829971 298.037201,196.441071 298.838196,196.054489 
	C298.684448,196.422958 298.202393,196.789124 297.406067,197.187073 
z"/>
<path fill="#89D5F3" opacity="1.000000" stroke="none" 
	d="
M186.541092,83.652954 
	C186.687057,83.868629 186.569748,84.251526 186.203979,84.816666 
	C186.062958,84.605995 186.170380,84.213081 186.541092,83.652954 
z"/>
<path fill="#FEFFFF" opacity="1.000000" stroke="none" 
	d="
M197.480881,343.000793 
	C197.012146,338.321411 197.008881,333.663116 197.043488,328.548889 
	C200.540436,328.073303 203.999496,328.048401 207.458603,328.037903 
	C208.281494,328.035400 209.336380,327.757843 209.890778,328.155609 
	C214.296005,331.316498 211.089142,335.931793 211.936127,339.810059 
	C212.418884,342.020569 211.146622,343.104004 208.818054,343.050171 
	C205.195877,342.966492 201.570404,343.024139 197.480881,343.000793 
z"/>
<path fill="#FDFEFF" opacity="1.000000" stroke="none" 
	d="
M235.925598,343.041199 
	C225.795822,342.905243 227.105820,344.266327 227.020996,334.601898 
	C226.963379,328.036804 227.015152,327.993378 233.840164,328.043121 
	C243.129333,328.110809 241.828461,326.938934 242.049911,336.240967 
	C242.146759,340.308533 242.367737,344.157166 235.925598,343.041199 
z"/>
<path fill="#070707" opacity="1.000000" stroke="none" 
	d="
M234.470123,85.028732 
	C234.469864,73.141563 234.469864,73.141556 245.791229,73.141563 
	C255.448746,73.141563 265.114685,73.376778 274.759857,73.031960 
	C278.928802,72.882912 279.748108,74.351227 279.607635,78.105362 
	C279.340088,85.255219 279.656586,92.425529 279.468811,99.580475 
	C279.394043,102.429779 280.290863,103.265800 283.108276,103.201248 
	C290.763672,103.025848 298.427368,103.231339 306.084229,103.091209 
	C308.632629,103.044579 309.598816,103.754990 309.576477,106.427055 
	C309.469238,119.247345 309.462433,132.069641 309.582245,144.889709 
	C309.607391,147.578705 308.667786,148.274155 306.115112,148.227295 
	C298.458282,148.086792 290.794342,148.297897 283.139282,148.115768 
	C280.238098,148.046753 279.425385,149.053162 279.479370,151.833633 
	C279.628052,159.490143 279.422424,167.153763 279.585999,174.809662 
	C279.645813,177.609436 278.829651,178.556931 275.944794,178.525528 
	C263.291626,178.387787 250.635071,178.380264 237.982147,178.529358 
	C234.996140,178.564545 234.367752,177.438171 234.419220,174.736694 
	C234.565094,167.080078 234.360306,159.416504 234.525131,151.760651 
	C234.587158,148.879501 233.598663,148.054550 230.787643,148.118988 
	C223.298676,148.290695 215.798752,148.027069 208.312408,148.248581 
	C205.199554,148.340683 204.361740,147.375870 204.402466,144.316605 
	C204.566467,131.997131 204.614075,119.671486 204.382874,107.354164 
	C204.313232,103.644394 205.690430,102.969925 208.989258,103.072807 
	C216.142181,103.295883 223.313812,102.955795 230.463745,103.222572 
	C233.855865,103.349144 234.711624,102.185066 234.533325,99.005821 
	C234.281982,94.524231 234.469955,90.018005 234.470123,85.028732 
z"/>
<path fill="#FDFFFE" opacity="1.000000" stroke="none" 
	d="
M137.513977,343.013184 
	C137.041504,338.314850 137.029160,333.679321 137.078857,328.590820 
	C140.943741,328.125885 144.747131,328.073883 148.549133,328.124878 
	C149.779083,328.141388 151.672867,327.687073 151.771683,329.508270 
	C151.994751,333.619507 151.964920,337.759644 151.740295,341.871765 
	C151.661255,343.318634 149.993240,343.087341 148.886139,343.095734 
	C145.249039,343.123383 141.611465,343.087463 137.513977,343.013184 
z"/>
<path fill="#F68EA3" opacity="1.000000" stroke="none" 
	d="
M250.066711,148.219360 
	C249.672714,146.859619 249.532349,145.870834 249.518143,144.880234 
	C249.350494,133.174072 249.355453,133.174759 237.500320,133.134796 
	C236.669724,133.132004 235.839172,133.105896 234.553833,133.008118 
	C231.146240,128.428360 231.785522,123.756042 233.784760,118.711700 
	C237.971344,118.317886 241.805969,118.043251 245.615906,118.241997 
	C248.642395,118.399864 249.706696,117.515839 249.615891,114.361267 
	C249.400436,106.875580 249.636551,99.377861 249.501892,91.888390 
	C249.452759,89.156326 250.229782,88.177841 253.142105,88.101265 
	C264.455841,87.803741 264.452820,87.691139 264.452881,99.159630 
	C264.452911,104.154236 264.659210,109.160309 264.382019,114.139473 
	C264.191925,117.553963 265.489349,118.338608 268.663055,118.244164 
	C275.815674,118.031319 282.981598,118.291183 290.136627,118.124001 
	C293.175751,118.052994 294.532928,118.628571 294.550049,122.168190 
	C294.603058,133.137955 294.773315,133.137100 283.734528,133.137131 
	C278.739929,133.137146 273.738617,133.293503 268.753143,133.080429 
	C265.618073,132.946442 264.135864,133.715530 264.427917,137.193771 
	C264.705353,140.497742 264.443909,143.846954 264.321075,147.575867 
	C259.727417,150.869980 255.072006,150.154343 250.066711,148.219360 
z"/>
<path fill="#D64F6B" opacity="1.000000" stroke="none" 
	d="
M249.617981,148.305573 
	C254.259109,147.915359 258.763733,147.981461 263.745544,148.011505 
	C264.353668,149.616852 264.591125,151.257812 264.598511,152.899780 
	C264.649994,164.366196 263.455231,165.289749 251.928574,163.604492 
	C249.585587,163.261932 249.354126,162.042999 249.381027,160.228424 
	C249.437744,156.406586 249.450607,152.584122 249.617981,148.305573 
z"/>
<path fill="#E25270" opacity="1.000000" stroke="none" 
	d="
M233.679932,118.291290 
	C234.118835,122.927650 234.090286,127.467041 234.080399,132.466019 
	C230.288422,133.002670 226.474319,133.005676 222.668488,133.184540 
	C220.385666,133.291809 219.168549,132.557968 219.436218,130.113708 
	C219.454163,129.949783 219.443390,129.781738 219.435364,129.616119 
	C218.870224,117.970505 218.870132,117.970512 233.679932,118.291290 
z"/>
</svg>